<svg width="114" height="460" viewBox="0 0 114 460" fill="none" xmlns="http://www.w3.org/2000/svg">
<path opacity="0.22" d="M1.99999 459.44L1.99999 433.52C1.99999 424.773 4.34666 418.213 9.03999 413.84C13.7333 409.467 20.6133 407.28 29.68 407.28L40.72 407.28C49.7867 407.28 56.6667 409.467 61.36 413.84C66.0533 418.213 68.4 424.773 68.4 433.52L68.4 441.84L114 441.84L114 459.44L1.99999 459.44ZM52.4 433.52C52.4 430.64 51.6 428.507 50 427.12C48.4 425.627 45.68 424.88 41.84 424.88L28.56 424.88C24.72 424.88 22 425.627 20.4 427.12C18.8 428.507 18 430.64 18 433.52L18 441.84L52.4 441.84L52.4 433.52ZM1.99999 397.721L1.99999 371.641C1.99999 362.575 4.13332 355.961 8.39999 351.801C12.56 347.641 19.0133 345.561 27.76 345.561L34.64 345.561C46.2667 345.561 53.6267 349.401 56.72 357.081L57.04 357.081C58.32 352.815 60.9333 349.828 64.88 348.121C68.8267 346.308 74.1067 345.401 80.72 345.401L100.4 345.401C103.6 345.401 106.213 345.295 108.24 345.081C110.16 344.868 112.08 344.335 114 343.481L114 361.401C112.187 362.041 110.48 362.468 108.88 362.681C107.28 362.895 104.4 363.001 100.24 363.001L79.76 363.001C74.64 363.001 71.0667 363.855 69.04 365.561C67.0133 367.161 66 369.988 66 374.041L66 380.121L114 380.121L114 397.721L1.99999 397.721ZM50 373.721C50 370.201 49.0933 367.588 47.28 365.881C45.4667 364.068 42.4267 363.161 38.16 363.161L29.52 363.161C25.4667 363.161 22.5333 363.908 20.72 365.401C18.9067 366.788 18 369.028 18 372.121L18 380.121L50 380.121L50 373.721ZM115.6 307.75C115.6 316.39 113.147 323.003 108.24 327.59C103.333 332.177 96.4 334.47 87.44 334.47L28.56 334.47C19.6 334.47 12.6667 332.177 7.75999 327.59C2.85332 323.003 0.399987 316.39 0.399987 307.75C0.399987 299.11 2.85332 292.497 7.75999 287.91C12.6667 283.323 19.6 281.03 28.56 281.03L87.44 281.03C96.4 281.03 103.333 283.323 108.24 287.91C113.147 292.497 115.6 299.11 115.6 307.75ZM99.6 307.75C99.6 301.67 95.92 298.63 88.56 298.63L27.44 298.63C20.08 298.63 16.4 301.67 16.4 307.75C16.4 313.83 20.08 316.87 27.44 316.87L88.56 316.87C95.92 316.87 99.6 313.83 99.6 307.75ZM114.64 265.592C114.64 268.792 114.427 271.512 114 273.752L98 273.752C98.4267 272.046 98.64 270.126 98.64 267.992C98.64 264.472 97.7867 261.859 96.08 260.152C94.2667 258.446 91.5467 257.592 87.92 257.592L1.99998 257.592L1.99998 239.992L87.44 239.992C96.6133 239.992 103.44 242.126 107.92 246.392C112.4 250.552 114.64 256.952 114.64 265.592ZM1.99998 227.409L1.99998 179.409L18 179.409L18 209.809L47.6 209.809L47.6 185.649L63.6 185.649L63.6 209.809L98 209.809L98 179.409L114 179.409L114 227.409L1.99998 227.409ZM115.6 144.484C115.6 152.91 113.2 159.364 108.4 163.844C103.6 168.217 96.8267 170.404 88.08 170.404L27.92 170.404C19.1733 170.404 12.4 168.217 7.59998 163.844C2.79998 159.364 0.39998 152.91 0.39998 144.484C0.399979 136.057 2.79998 129.657 7.59998 125.284C12.4 120.804 19.1733 118.564 27.92 118.564L39.76 118.564L39.76 135.204L26.8 135.204C19.8666 135.204 16.4 138.137 16.4 144.004C16.4 149.87 19.8667 152.804 26.8 152.804L89.36 152.804C96.1867 152.804 99.6 149.87 99.6 144.004C99.6 138.137 96.1867 135.204 89.36 135.204L72.24 135.204L72.24 118.564L88.08 118.564C96.8267 118.564 103.6 120.804 108.4 125.284C113.2 129.657 115.6 136.057 115.6 144.484ZM18 94.2737L18 112.674L1.99998 112.674L1.99997 58.2737L18 58.2737L18 76.6737L114 76.6737L114 94.2737L18 94.2737ZM115.6 26.8725C115.6 35.4058 113.2 41.8592 108.4 46.2325C103.493 50.6058 96.5066 52.7925 87.44 52.7925L81.04 52.7925L81.04 36.1525L88.72 36.1525C95.9733 36.1525 99.6 33.1125 99.6 27.0325C99.6 24.0458 98.7466 21.8058 97.04 20.3125C95.2266 18.7125 92.3466 17.9125 88.4 17.9125C83.7066 17.9125 79.6 18.9792 76.08 21.1125C72.4533 23.2458 68.1333 27.1925 63.12 32.9525C56.72 40.2058 50.96 45.2725 45.84 48.1525C40.6133 51.0325 34.7466 52.4725 28.24 52.4725C19.3866 52.4725 12.56 50.2325 7.75998 45.7525C2.85331 41.2725 0.399975 34.7658 0.399975 26.2325C0.399974 17.8058 2.85331 11.4592 7.75997 7.1925C12.56 2.81916 19.4933 0.632495 28.56 0.632494L33.2 0.632494L33.2 17.2725L27.44 17.2725C23.6 17.2725 20.8266 18.0192 19.12 19.5125C17.3066 21.0058 16.4 23.1925 16.4 26.0725C16.4 31.9392 19.9733 34.8725 27.12 34.8725C31.1733 34.8725 34.96 33.8058 38.48 31.6725C42 29.4325 46.2666 25.4325 51.28 19.6725C57.68 12.3125 63.4933 7.24583 68.72 4.4725C73.9466 1.69916 80.08 0.312491 87.12 0.312491C96.2933 0.312491 103.333 2.60582 108.24 7.19249C113.147 11.6725 115.6 18.2325 115.6 26.8725Z" fill="#0085FF"/>
</svg>
