<svg width="24" height="24" viewBox="0 0 24 24" fill="none" xmlns="http://www.w3.org/2000/svg">
<g clip-path="url(#clip0_56_1524)">
<g filter="url(#filter0_d_56_1524)">
<path d="M2 7.5C2 6.67188 2.7092 6 3.58333 6H6.75C7.62413 6 8.33333 6.67188 8.33333 7.5V8H14.6667V7.5C14.6667 6.67188 15.3759 6 16.25 6H19.4167C20.2908 6 21 6.67188 21 7.5V10.5C21 11.3281 20.2908 12 19.4167 12H16.25C15.3759 12 14.6667 11.3281 14.6667 10.5V10H8.33333V10.5C8.33333 10.5531 8.33003 10.6062 8.32344 10.6562L10.9722 14H14.1389C15.013 14 15.7222 14.6719 15.7222 15.5V18.5C15.7222 19.3281 15.013 20 14.1389 20H10.9722C10.0981 20 9.38889 19.3281 9.38889 18.5V15.5C9.38889 15.4469 9.39219 15.3938 9.39879 15.3438L6.75 12H3.58333C2.7092 12 2 11.3281 2 10.5V7.5Z" fill="white"/>
</g>
</g>
<defs>
<filter id="filter0_d_56_1524" x="-2" y="6" width="27" height="22" filterUnits="userSpaceOnUse" color-interpolation-filters="sRGB">
<feFlood flood-opacity="0" result="BackgroundImageFix"/>
<feColorMatrix in="SourceAlpha" type="matrix" values="0 0 0 0 0 0 0 0 0 0 0 0 0 0 0 0 0 0 127 0" result="hardAlpha"/>
<feOffset dy="4"/>
<feGaussianBlur stdDeviation="2"/>
<feComposite in2="hardAlpha" operator="out"/>
<feColorMatrix type="matrix" values="0 0 0 0 0 0 0 0 0 0 0 0 0 0 0 0 0 0 0.25 0"/>
<feBlend mode="normal" in2="BackgroundImageFix" result="effect1_dropShadow_56_1524"/>
<feBlend mode="normal" in="SourceGraphic" in2="effect1_dropShadow_56_1524" result="shape"/>
</filter>
<clipPath id="clip0_56_1524">
<rect width="24" height="24" fill="white"/>
</clipPath>
</defs>
</svg>
