<svg width="24" height="24" viewBox="0 0 24 24" fill="none" xmlns="http://www.w3.org/2000/svg">
<path fill-rule="evenodd" clip-rule="evenodd" d="M20.53 11.4699C20.6704 11.6105 20.7493 11.8012 20.7493 11.9999C20.7493 12.1987 20.6704 12.3893 20.53 12.5299L14.53 18.5299C14.4613 18.6036 14.3785 18.6627 14.2865 18.7037C14.1945 18.7447 14.0952 18.7667 13.9945 18.7685C13.8938 18.7703 13.7938 18.7518 13.7004 18.714C13.607 18.6763 13.5222 18.6202 13.451 18.5489C13.3797 18.4777 13.3236 18.3929 13.2859 18.2995C13.2482 18.2061 13.2296 18.1061 13.2314 18.0054C13.2332 17.9047 13.2552 17.8054 13.2962 17.7134C13.3372 17.6214 13.3963 17.5386 13.47 17.4699L18.19 12.7499L4 12.7499C3.80108 12.7499 3.61032 12.6709 3.46967 12.5302C3.32901 12.3896 3.25 12.1988 3.25 11.9999C3.25 11.801 3.32901 11.6102 3.46967 11.4696C3.61032 11.3289 3.80108 11.2499 4 11.2499L18.19 11.2499L13.47 6.52991C13.3963 6.46125 13.3372 6.37845 13.2962 6.28645C13.2552 6.19445 13.2332 6.09513 13.2314 5.99443C13.2296 5.89373 13.2482 5.7937 13.2859 5.70031C13.3236 5.60692 13.3797 5.52209 13.451 5.45087C13.5222 5.37965 13.607 5.32351 13.7004 5.28579C13.7938 5.24807 13.8938 5.22954 13.9945 5.23132C14.0952 5.23309 14.1945 5.25514 14.2865 5.29613C14.3785 5.33712 14.4613 5.39622 14.53 5.46991L20.53 11.4699Z" fill="black"/>
</svg>
