<svg width="150" height="150" viewBox="0 0 150 150" fill="none" xmlns="http://www.w3.org/2000/svg">
<path d="M4.49378 1.63928L7.24062 7.13805H1.74694L4.49378 1.63928Z" fill="white"/>
<path d="M4.49378 19.797L7.16017 25.1348H1.8274L4.49378 19.797Z" fill="white"/>
<path d="M4.49378 38.8118L6.22349 42.2744H2.76408L4.49378 38.8118Z" fill="white"/>
<path d="M4.49378 54.1224L8.98757 63.1183H0L4.49378 54.1224Z" fill="white"/>
<path d="M4.49378 74.9663L6.22349 78.4289H2.76408L4.49378 74.9663Z" fill="white"/>
<path d="M4.49378 91.7551L7.51071 97.7946H1.47686L4.49378 91.7551Z" fill="white"/>
<path d="M4.49378 109.131L8.21179 116.574H0.775781L4.49378 109.131Z" fill="white"/>
<path d="M22.5543 1.20214L25.7379 7.57519H19.3707L22.5543 1.20214Z" fill="white"/>
<path d="M22.5543 21.2695L23.7496 23.6623H21.359L22.5543 21.2695Z" fill="white"/>
<path d="M22.5543 35.6138L27.4791 45.4725H17.6295L22.5543 35.6138Z" fill="white"/>
<path d="M22.5543 56.3427L24.8299 60.8981H20.2787L22.5543 56.3427Z" fill="white"/>
<path d="M22.5543 73.0164L26.2321 80.3788H18.8765L22.5543 73.0164Z" fill="white"/>
<path d="M22.5543 92.2153L25.1115 97.3344H19.9971L22.5543 92.2153Z" fill="white"/>
<path d="M22.5543 107.733L27.6687 117.971H17.4399L22.5543 107.733Z" fill="white"/>
<path d="M40.6148 0.1553L44.8443 8.62202H36.3854L40.6148 0.1553Z" fill="white"/>
<path d="M40.6148 18.3073L44.7696 26.6245H36.4601L40.6148 18.3073Z" fill="white"/>
<path d="M40.6148 39.9392L41.2182 41.1471H40.0114L40.6148 39.9392Z" fill="white"/>
<path d="M40.6148 54.7436L44.488 62.4971H36.7417L40.6148 54.7436Z" fill="white"/>
<path d="M40.6148 71.8143L45.4936 81.5809H35.736L40.6148 71.8143Z" fill="white"/>
<path d="M40.6148 90.7141L44.6719 98.8357H36.5578L40.6148 90.7141Z" fill="white"/>
<path d="M40.6148 109.355L44.1087 116.349H37.1209L40.6148 109.355Z" fill="white"/>
<path d="M58.6753 0.782251L62.2784 7.99507H55.0723L58.6753 0.782251Z" fill="white"/>
<path d="M58.6753 17.9967L63.1404 26.9351H54.2103L58.6753 17.9967Z" fill="white"/>
<path d="M58.6753 36.1602L63.0542 44.9261H54.2965L58.6753 36.1602Z" fill="white"/>
<path d="M58.6753 54.341L62.9507 62.8998H54.3999L58.6753 54.341Z" fill="white"/>
<path d="M58.6753 73.0625L62.3071 80.3328H55.0435L58.6753 73.0625Z" fill="white"/>
<path d="M58.6753 92.8652L60.5832 96.6845H56.7675L58.6753 92.8652Z" fill="white"/>
<path d="M58.6753 110.845L60.6809 114.859H56.6698L58.6753 110.845Z" fill="white"/>
<path d="M76.7358 2.90468L78.2184 5.87264H75.2532L76.7358 2.90468Z" fill="white"/>
<path d="M76.7358 18.3878L80.8101 26.544H72.6616L76.7358 18.3878Z" fill="white"/>
<path d="M76.7358 39.7091L77.5691 41.3772H75.9026L76.7358 39.7091Z" fill="white"/>
<path d="M76.7358 56.7223L78.6322 60.5185H74.8395L76.7358 56.7223Z" fill="white"/>
<path d="M76.7358 72.1824L81.2469 81.2128H72.2248L76.7358 72.1824Z" fill="white"/>
<path d="M76.7358 91.433L80.0746 98.1167H73.3971L76.7358 91.433Z" fill="white"/>
<path d="M76.7358 110.626L78.9598 115.078H74.5119L76.7358 110.626Z" fill="white"/>
<path d="M94.7964 1.19063L97.9914 7.58669H91.6013L94.7964 1.19063Z" fill="white"/>
<path d="M94.7964 21.1315L96.1295 23.8003H93.4632L94.7964 21.1315Z" fill="white"/>
<path d="M94.7963 38.2194L97.118 42.8669H92.4748L94.7963 38.2194Z" fill="white"/>
<path d="M94.7964 57.7403L95.6756 59.5004H93.9171L94.7964 57.7403Z" fill="white"/>
<path d="M94.7964 72.1594L99.3304 81.2358H90.2624L94.7964 72.1594Z" fill="white"/>
<path d="M94.7964 93.8373L95.733 95.7124H93.8597L94.7964 93.8373Z" fill="white"/>
<path d="M94.7964 112.179L95.4687 113.525H94.124L94.7964 112.179Z" fill="white"/>
<path d="M112.857 0L117.241 8.77732H108.472L112.857 0Z" fill="white"/>
<path d="M112.857 18.3763L116.943 26.5555H108.771L112.857 18.3763Z" fill="white"/>
<path d="M112.857 38.5645L114.834 42.5218H110.88L112.857 38.5645Z" fill="white"/>
<path d="M112.857 57.3665L114.11 59.8743H111.604L112.857 57.3665Z" fill="white"/>
<path d="M112.857 71.6993L117.851 81.696H107.863L112.857 71.6993Z" fill="white"/>
<path d="M112.857 93.1586L114.472 96.3911H111.242L112.857 93.1586Z" fill="white"/>
<path d="M112.857 107.704L118 118H107.714L112.857 107.704Z" fill="white"/>
</svg>
