<svg width="198" height="198" viewBox="0 0 198 198" fill="none" xmlns="http://www.w3.org/2000/svg">
<path d="M2.12489 138.243C2.55837 137.809 2.55837 137.107 2.12489 136.673C1.69141 136.24 0.988593 136.24 0.555111 136.673C0.121629 137.107 0.12163 137.809 0.555112 138.243C0.988594 138.676 1.69141 138.676 2.12489 138.243Z" fill="white"/>
<path d="M21.733 157.851C22.2563 157.328 22.2563 156.479 21.733 155.956C21.2097 155.433 20.3612 155.433 19.8379 155.956C19.3146 156.479 19.3146 157.328 19.8379 157.851C20.3612 158.374 21.2097 158.374 21.733 157.851Z" fill="white"/>
<path d="M41.1784 177.296C41.7017 176.773 41.7017 175.925 41.1784 175.401C40.6551 174.878 39.8067 174.878 39.2834 175.401C38.76 175.925 38.76 176.773 39.2833 177.296C39.8067 177.82 40.6551 177.82 41.1784 177.296Z" fill="white"/>
<path d="M60.4612 196.579C60.8947 196.146 60.8947 195.443 60.4612 195.009C60.0277 194.576 59.3249 194.576 58.8914 195.009C58.4579 195.443 58.4579 196.146 58.8914 196.579C59.3249 197.013 60.0277 197.013 60.4612 196.579Z" fill="white"/>
<path d="M2.28752 99.5147C2.81083 98.9914 2.81083 98.143 2.28752 97.6197C1.76422 97.0964 0.915779 97.0964 0.392477 97.6197C-0.130826 98.143 -0.130826 98.9914 0.392477 99.5147C0.915779 100.038 1.76422 100.038 2.28752 99.5147Z" fill="white"/>
<path d="M22.0653 119.292C22.7721 118.586 22.7722 117.44 22.0653 116.733C21.3585 116.026 20.2124 116.026 19.5056 116.733C18.7987 117.44 18.7987 118.586 19.5056 119.292C20.2124 119.999 21.3585 119.999 22.0653 119.292Z" fill="white"/>
<path d="M41.8431 139.07C42.7335 138.18 42.7335 136.736 41.8431 135.846C40.9527 134.955 39.5091 134.955 38.6187 135.846C37.7283 136.736 37.7283 138.18 38.6187 139.07C39.5091 139.961 40.9527 139.961 41.8431 139.07Z" fill="white"/>
<path d="M61.2885 158.516C62.1789 157.625 62.1789 156.182 61.2885 155.291C60.3981 154.401 58.9545 154.401 58.0641 155.291C57.1737 156.182 57.1737 157.625 58.0641 158.516C58.9545 159.406 60.3981 159.406 61.2885 158.516Z" fill="white"/>
<path d="M80.4016 177.629C81.1085 176.922 81.1085 175.776 80.4016 175.069C79.6948 174.362 78.5487 174.362 77.8419 175.069C77.135 175.776 77.135 176.922 77.8419 177.629C78.5487 178.336 79.6948 178.336 80.4016 177.629Z" fill="white"/>
<path d="M99.5147 196.742C100.038 196.219 100.038 195.37 99.5147 194.847C98.9914 194.324 98.143 194.324 97.6197 194.847C97.0964 195.37 97.0964 196.219 97.6197 196.742C98.143 197.265 98.9914 197.265 99.5147 196.742Z" fill="white"/>
<path d="M2.12489 60.4612C2.55837 60.0277 2.55837 59.3249 2.12489 58.8914C1.69141 58.4579 0.988594 58.4579 0.555112 58.8914C0.12163 59.3249 0.121629 60.0277 0.555111 60.4612C0.988593 60.8947 1.69141 60.8947 2.12489 60.4612Z" fill="white"/>
<path d="M22.0653 80.4016C22.7722 79.6948 22.7721 78.5487 22.0653 77.8419C21.3585 77.135 20.2124 77.135 19.5056 77.8419C18.7987 78.5487 18.7987 79.6948 19.5056 80.4016C20.2124 81.1085 21.3585 81.1085 22.0653 80.4016Z" fill="white"/>
<path d="M42.0057 100.342C42.9859 99.3618 42.9859 97.7726 42.0057 96.7923C41.0255 95.8121 39.4363 95.8121 38.456 96.7923C37.4758 97.7726 37.4758 99.3618 38.456 100.342C39.4363 101.322 41.0255 101.322 42.0057 100.342Z" fill="white"/>
<path d="M61.9532 120.29C63.2107 119.032 63.2107 116.993 61.9532 115.736C60.6957 114.478 58.6569 114.478 57.3994 115.736C56.1419 116.993 56.1419 119.032 57.3994 120.29C58.6569 121.547 60.6957 121.547 61.9532 120.29Z" fill="white"/>
<path d="M81.3986 139.735C82.6561 138.477 82.6561 136.439 81.3986 135.181C80.1411 133.924 78.1024 133.924 76.8449 135.181C75.5874 136.439 75.5874 138.477 76.8449 139.735C78.1024 140.992 80.1411 140.992 81.3986 139.735Z" fill="white"/>
<path d="M100.342 158.678C101.322 157.698 101.322 156.109 100.342 155.129C99.3618 154.148 97.7726 154.148 96.7924 155.129C95.8121 156.109 95.8121 157.698 96.7923 158.678C97.7726 159.659 99.3618 159.659 100.342 158.678Z" fill="white"/>
<path d="M119.292 177.629C119.999 176.922 119.999 175.776 119.292 175.069C118.586 174.362 117.44 174.362 116.733 175.069C116.026 175.776 116.026 176.922 116.733 177.629C117.44 178.336 118.586 178.336 119.292 177.629Z" fill="white"/>
<path d="M138.243 196.579C138.676 196.146 138.676 195.443 138.243 195.009C137.809 194.576 137.107 194.576 136.673 195.009C136.24 195.443 136.24 196.146 136.673 196.579C137.107 197.013 137.809 197.013 138.243 196.579Z" fill="white"/>
<path d="M21.733 41.1784C22.2563 40.6551 22.2563 39.8067 21.733 39.2834C21.2097 38.7601 20.3612 38.76 19.8379 39.2834C19.3146 39.8067 19.3146 40.6551 19.8379 41.1784C20.3612 41.7017 21.2097 41.7017 21.733 41.1784Z" fill="white"/>
<path d="M41.8431 61.2885C42.7335 60.3981 42.7335 58.9545 41.8431 58.0641C40.9527 57.1737 39.5091 57.1737 38.6187 58.0641C37.7283 58.9545 37.7283 60.3981 38.6187 61.2885C39.5091 62.1789 40.9527 62.1789 41.8431 61.2885Z" fill="white"/>
<path d="M61.9532 81.3986C63.2107 80.1411 63.2107 78.1024 61.9532 76.8449C60.6957 75.5874 58.6569 75.5874 57.3994 76.8449C56.1419 78.1024 56.1419 80.1411 57.3994 81.3986C58.6569 82.6561 60.6957 82.6561 61.9532 81.3986Z" fill="white"/>
<path d="M82.0633 101.509C83.6879 99.8842 83.6879 97.2502 82.0633 95.6256C80.4387 94.001 77.8048 94.001 76.1802 95.6256C74.5556 97.2502 74.5556 99.8842 76.1802 101.509C77.8048 103.133 80.4387 103.133 82.0633 101.509Z" fill="white"/>
<path d="M101.509 120.954C103.133 119.33 103.133 116.696 101.509 115.071C99.8842 113.446 97.2502 113.446 95.6256 115.071C94.001 116.696 94.001 119.33 95.6256 120.954C97.2502 122.579 99.8842 122.579 101.509 120.954Z" fill="white"/>
<path d="M120.29 139.735C121.547 138.477 121.547 136.439 120.29 135.181C119.032 133.924 116.993 133.924 115.736 135.181C114.478 136.439 114.478 138.477 115.736 139.735C116.993 140.992 119.032 140.992 120.29 139.735Z" fill="white"/>
<path d="M139.07 158.516C139.961 157.625 139.961 156.182 139.07 155.291C138.18 154.401 136.736 154.401 135.846 155.291C134.955 156.182 134.955 157.625 135.846 158.516C136.736 159.406 138.18 159.406 139.07 158.516Z" fill="white"/>
<path d="M157.851 177.296C158.374 176.773 158.374 175.925 157.851 175.401C157.328 174.878 156.479 174.878 155.956 175.401C155.433 175.925 155.433 176.773 155.956 177.296C156.479 177.82 157.328 177.82 157.851 177.296Z" fill="white"/>
<path d="M41.1784 21.733C41.7017 21.2097 41.7017 20.3612 41.1784 19.8379C40.6551 19.3146 39.8067 19.3146 39.2833 19.8379C38.76 20.3612 38.76 21.2097 39.2834 21.733C39.8067 22.2563 40.6551 22.2563 41.1784 21.733Z" fill="white"/>
<path d="M61.2885 41.8431C62.1789 40.9527 62.1789 39.5091 61.2885 38.6187C60.3981 37.7283 58.9545 37.7283 58.0641 38.6187C57.1737 39.5091 57.1737 40.9527 58.0641 41.8431C58.9545 42.7335 60.3981 42.7335 61.2885 41.8431Z" fill="white"/>
<path d="M81.3986 61.9532C82.6561 60.6957 82.6561 58.6569 81.3986 57.3994C80.1411 56.1419 78.1024 56.1419 76.8449 57.3994C75.5874 58.6569 75.5874 60.6957 76.8449 61.9532C78.1024 63.2107 80.1411 63.2107 81.3986 61.9532Z" fill="white"/>
<path d="M101.509 82.0633C103.133 80.4387 103.133 77.8048 101.509 76.1802C99.8842 74.5556 97.2502 74.5556 95.6256 76.1802C94.001 77.8048 94.001 80.4387 95.6256 82.0633C97.2502 83.6879 99.8842 83.6879 101.509 82.0633Z" fill="white"/>
<path d="M120.954 101.509C122.579 99.8842 122.579 97.2502 120.954 95.6256C119.33 94.001 116.696 94.001 115.071 95.6256C113.446 97.2502 113.446 99.8842 115.071 101.509C116.696 103.133 119.33 103.133 120.954 101.509Z" fill="white"/>
<path d="M139.735 120.29C140.992 119.032 140.992 116.993 139.735 115.736C138.477 114.478 136.439 114.478 135.181 115.736C133.924 116.993 133.924 119.032 135.181 120.29C136.439 121.547 138.477 121.547 139.735 120.29Z" fill="white"/>
<path d="M158.516 139.07C159.406 138.18 159.406 136.736 158.516 135.846C157.625 134.955 156.182 134.955 155.291 135.846C154.401 136.736 154.401 138.18 155.291 139.07C156.182 139.961 157.625 139.961 158.516 139.07Z" fill="white"/>
<path d="M177.296 157.851C177.82 157.328 177.82 156.479 177.296 155.956C176.773 155.433 175.925 155.433 175.401 155.956C174.878 156.479 174.878 157.328 175.401 157.851C175.925 158.374 176.773 158.374 177.296 157.851Z" fill="white"/>
<path d="M60.4612 2.12489C60.8947 1.69141 60.8947 0.988592 60.4612 0.55511C60.0277 0.121628 59.3249 0.121628 58.8914 0.555111C58.4579 0.988593 58.4579 1.69141 58.8914 2.12489C59.3249 2.55837 60.0277 2.55837 60.4612 2.12489Z" fill="white"/>
<path d="M80.4016 22.0653C81.1085 21.3585 81.1085 20.2124 80.4016 19.5056C79.6948 18.7987 78.5487 18.7987 77.8419 19.5056C77.135 20.2124 77.135 21.3584 77.8419 22.0653C78.5487 22.7721 79.6948 22.7722 80.4016 22.0653Z" fill="white"/>
<path d="M100.342 42.0057C101.322 41.0255 101.322 39.4363 100.342 38.456C99.3618 37.4758 97.7726 37.4758 96.7923 38.456C95.8121 39.4363 95.8121 41.0255 96.7924 42.0057C97.7726 42.9859 99.3618 42.9859 100.342 42.0057Z" fill="white"/>
<path d="M120.29 61.9532C121.547 60.6957 121.547 58.6569 120.29 57.3994C119.032 56.1419 116.993 56.1419 115.736 57.3994C114.478 58.6569 114.478 60.6957 115.736 61.9532C116.993 63.2107 119.032 63.2107 120.29 61.9532Z" fill="white"/>
<path d="M139.735 81.3986C140.992 80.1411 140.992 78.1024 139.735 76.8449C138.477 75.5874 136.439 75.5874 135.181 76.8449C133.924 78.1024 133.924 80.1411 135.181 81.3986C136.439 82.6561 138.477 82.6561 139.735 81.3986Z" fill="white"/>
<path d="M158.678 100.342C159.659 99.3618 159.659 97.7726 158.678 96.7924C157.698 95.8121 156.109 95.8121 155.129 96.7924C154.148 97.7726 154.148 99.3618 155.129 100.342C156.109 101.322 157.698 101.322 158.678 100.342Z" fill="white"/>
<path d="M177.629 119.292C178.336 118.586 178.336 117.44 177.629 116.733C176.922 116.026 175.776 116.026 175.069 116.733C174.362 117.44 174.362 118.586 175.069 119.292C175.776 119.999 176.922 119.999 177.629 119.292Z" fill="white"/>
<path d="M196.579 138.243C197.013 137.809 197.013 137.107 196.579 136.673C196.146 136.24 195.443 136.24 195.009 136.673C194.576 137.107 194.576 137.809 195.009 138.243C195.443 138.676 196.146 138.676 196.579 138.243Z" fill="white"/>
<path d="M99.5147 2.28752C100.038 1.76422 100.038 0.915781 99.5147 0.392478C98.9914 -0.130824 98.143 -0.130827 97.6197 0.392476C97.0964 0.915778 97.0964 1.76422 97.6197 2.28752C98.143 2.81082 98.9914 2.81082 99.5147 2.28752Z" fill="white"/>
<path d="M119.292 22.0653C119.999 21.3584 119.999 20.2124 119.292 19.5056C118.586 18.7987 117.44 18.7987 116.733 19.5056C116.026 20.2124 116.026 21.3584 116.733 22.0653C117.44 22.7721 118.586 22.7721 119.292 22.0653Z" fill="white"/>
<path d="M139.07 41.8431C139.961 40.9527 139.961 39.5091 139.07 38.6187C138.18 37.7283 136.736 37.7283 135.846 38.6187C134.955 39.5091 134.955 40.9527 135.846 41.8431C136.736 42.7335 138.18 42.7335 139.07 41.8431Z" fill="white"/>
<path d="M158.516 61.2885C159.406 60.3981 159.406 58.9545 158.516 58.0641C157.625 57.1737 156.182 57.1737 155.291 58.0641C154.401 58.9545 154.401 60.3981 155.291 61.2885C156.182 62.1789 157.625 62.1789 158.516 61.2885Z" fill="white"/>
<path d="M177.629 80.4016C178.336 79.6948 178.336 78.5487 177.629 77.8419C176.922 77.135 175.776 77.135 175.069 77.8419C174.362 78.5487 174.362 79.6948 175.069 80.4016C175.776 81.1085 176.922 81.1085 177.629 80.4016Z" fill="white"/>
<path d="M196.742 99.5147C197.265 98.9914 197.265 98.143 196.742 97.6197C196.219 97.0964 195.37 97.0964 194.847 97.6197C194.324 98.143 194.324 98.9914 194.847 99.5147C195.37 100.038 196.219 100.038 196.742 99.5147Z" fill="white"/>
<path d="M138.243 2.12489C138.676 1.69141 138.676 0.988592 138.243 0.55511C137.809 0.121628 137.107 0.121628 136.673 0.55511C136.24 0.988592 136.24 1.69141 136.673 2.12489C137.107 2.55837 137.809 2.55837 138.243 2.12489Z" fill="white"/>
<path d="M157.851 21.733C158.374 21.2097 158.374 20.3612 157.851 19.8379C157.328 19.3146 156.479 19.3146 155.956 19.8379C155.433 20.3612 155.433 21.2097 155.956 21.733C156.479 22.2563 157.328 22.2563 157.851 21.733Z" fill="white"/>
<path d="M177.296 41.1784C177.82 40.6551 177.82 39.8067 177.296 39.2834C176.773 38.76 175.925 38.76 175.401 39.2834C174.878 39.8067 174.878 40.6551 175.401 41.1784C175.925 41.7017 176.773 41.7017 177.296 41.1784Z" fill="white"/>
<path d="M196.579 60.4612C197.013 60.0277 197.013 59.3249 196.579 58.8914C196.146 58.4579 195.443 58.4579 195.009 58.8914C194.576 59.3249 194.576 60.0277 195.009 60.4612C195.443 60.8947 196.146 60.8947 196.579 60.4612Z" fill="white"/>
</svg>
