<svg width="196" height="165" viewBox="0 0 196 165" fill="none" xmlns="http://www.w3.org/2000/svg">
<path d="M5.69702 9.63995C8.84339 9.63995 11.394 7.48198 11.394 4.81998C11.394 2.15798 8.84339 0 5.69702 0C2.55064 0 0 2.15798 0 4.81998C0 7.48198 2.55064 9.63995 5.69702 9.63995Z" fill="#0085FF"/>
<path d="M5.69702 28.331C7.1365 28.331 8.30343 27.3438 8.30343 26.1259C8.30343 24.908 7.1365 23.9207 5.69702 23.9207C4.25754 23.9207 3.09061 24.908 3.09061 26.1259C3.09061 27.3438 4.25754 28.331 5.69702 28.331Z" fill="#0085FF"/>
<path d="M5.69702 49.698C7.17633 49.698 8.37554 48.6833 8.37554 47.4318C8.37554 46.1802 7.17633 45.1656 5.69702 45.1656C4.21771 45.1656 3.01849 46.1802 3.01849 47.4318C3.01849 48.6833 4.21771 49.698 5.69702 49.698Z" fill="#0085FF"/>
<path d="M5.69702 70.7249C6.99426 70.7249 8.04588 69.8352 8.04588 68.7377C8.04588 67.6401 6.99426 66.7504 5.69702 66.7504C4.39978 66.7504 3.34816 67.6401 3.34816 68.7377C3.34816 69.8352 4.39978 70.7249 5.69702 70.7249Z" fill="#0085FF"/>
<path d="M5.69702 91.8217C6.85771 91.8217 7.79863 91.0256 7.79863 90.0436C7.79863 89.0616 6.85771 88.2655 5.69702 88.2655C4.53633 88.2655 3.59541 89.0616 3.59541 90.0436C3.59541 91.0256 4.53633 91.8217 5.69702 91.8217Z" fill="#0085FF"/>
<path d="M5.69702 113.258C6.94305 113.258 7.95316 112.404 7.95316 111.349C7.95316 110.295 6.94305 109.441 5.69702 109.441C4.45098 109.441 3.44087 110.295 3.44087 111.349C3.44087 112.404 4.45098 113.258 5.69702 113.258Z" fill="#0085FF"/>
<path d="M5.69702 134.172C6.68702 134.172 7.48957 133.493 7.48957 132.655C7.48957 131.818 6.68702 131.139 5.69702 131.139C4.70702 131.139 3.90447 131.818 3.90447 132.655C3.90447 133.493 4.70702 134.172 5.69702 134.172Z" fill="#0085FF"/>
<path d="M5.69702 157.038C7.70546 157.038 9.33363 155.661 9.33363 153.961C9.33363 152.262 7.70546 150.885 5.69702 150.885C3.68857 150.885 2.0604 152.262 2.0604 153.961C2.0604 155.661 3.68857 157.038 5.69702 157.038Z" fill="#0085FF"/>
<path d="M5.69702 176.688C6.62443 176.688 7.37625 176.052 7.37625 175.267C7.37625 174.483 6.62443 173.846 5.69702 173.846C4.7696 173.846 4.01779 174.483 4.01779 175.267C4.01779 176.052 4.7696 176.688 5.69702 176.688Z" fill="#0085FF"/>
<path d="M30.8797 8.28896C33.1442 8.28896 34.9799 6.73585 34.9799 4.81998C34.9799 2.90411 33.1442 1.35099 30.8797 1.35099C28.6153 1.35099 26.7795 2.90411 26.7795 4.81998C26.7795 6.73585 28.6153 8.28896 30.8797 8.28896Z" fill="#0085FF"/>
<path d="M30.8797 27.8342C31.9949 27.8342 32.8989 27.0694 32.8989 26.1259C32.8989 25.1824 31.9949 24.4175 30.8797 24.4175C29.7646 24.4175 28.8605 25.1824 28.8605 26.1259C28.8605 27.0694 29.7646 27.8342 30.8797 27.8342Z" fill="#0085FF"/>
<path d="M30.8797 49.1924C32.029 49.1924 32.9607 48.4042 32.9607 47.4318C32.9607 46.4594 32.029 45.6711 30.8797 45.6711C29.7304 45.6711 28.7987 46.4594 28.7987 47.4318C28.7987 48.4042 29.7304 49.1924 30.8797 49.1924Z" fill="#0085FF"/>
<path d="M30.8797 73.4879C33.9806 73.4879 36.4943 71.3612 36.4943 68.7377C36.4943 66.1142 33.9806 63.9874 30.8797 63.9874C27.7789 63.9874 25.2651 66.1142 25.2651 68.7377C25.2651 71.3612 27.7789 73.4879 30.8797 73.4879Z" fill="#0085FF"/>
<path d="M30.8797 94.6457C33.8839 94.6457 36.3192 92.5852 36.3192 90.0436C36.3192 87.5019 33.8839 85.4415 30.8797 85.4415C27.8756 85.4415 25.4403 87.5019 25.4403 90.0436C25.4403 92.5852 27.8756 94.6457 30.8797 94.6457Z" fill="#0085FF"/>
<path d="M30.8797 115.368C33.5027 115.368 35.629 113.569 35.629 111.349C35.629 109.13 33.5027 107.331 30.8797 107.331C28.2568 107.331 26.1305 109.13 26.1305 111.349C26.1305 113.569 28.2568 115.368 30.8797 115.368Z" fill="#0085FF"/>
<path d="M30.8797 135.88C32.9849 135.88 34.6915 134.436 34.6915 132.655C34.6915 130.874 32.9849 129.43 30.8797 129.43C28.7746 129.43 27.068 130.874 27.068 132.655C27.068 134.436 28.7746 135.88 30.8797 135.88Z" fill="#0085FF"/>
<path d="M30.8797 154.885C31.4828 154.885 31.9717 154.472 31.9717 153.961C31.9717 153.451 31.4828 153.037 30.8797 153.037C30.2766 153.037 29.7877 153.451 29.7877 153.961C29.7877 154.472 30.2766 154.885 30.8797 154.885Z" fill="#0085FF"/>
<path d="M30.8797 179.826C33.8554 179.826 36.2677 177.785 36.2677 175.267C36.2677 172.75 33.8554 170.709 30.8797 170.709C27.904 170.709 25.4918 172.75 25.4918 175.267C25.4918 177.785 27.904 179.826 30.8797 179.826Z" fill="#0085FF"/>
<path d="M56.0625 8.0885C58.1961 8.0885 59.9257 6.62513 59.9257 4.81998C59.9257 3.01482 58.1961 1.55146 56.0625 1.55146C53.9288 1.55146 52.1992 3.01482 52.1992 4.81998C52.1992 6.62513 53.9288 8.0885 56.0625 8.0885Z" fill="#0085FF"/>
<path d="M56.0625 30.9023C59.1804 30.9023 61.708 28.7638 61.708 26.1259C61.708 23.4879 59.1804 21.3495 56.0625 21.3495C52.9445 21.3495 50.4169 23.4879 50.4169 26.1259C50.4169 28.7638 52.9445 30.9023 56.0625 30.9023Z" fill="#0085FF"/>
<path d="M56.0625 51.232C58.5431 51.232 60.5541 49.5306 60.5541 47.4318C60.5541 45.333 58.5431 43.6316 56.0625 43.6316C53.5818 43.6316 51.5708 45.333 51.5708 47.4318C51.5708 49.5306 53.5818 51.232 56.0625 51.232Z" fill="#0085FF"/>
<path d="M56.0625 73.4356C59.1292 73.4356 61.6152 71.3323 61.6152 68.7377C61.6152 66.1431 59.1292 64.0397 56.0625 64.0397C52.9957 64.0397 50.5097 66.1431 50.5097 68.7377C50.5097 71.3323 52.9957 73.4356 56.0625 73.4356Z" fill="#0085FF"/>
<path d="M56.0625 93.5126C58.3269 93.5126 60.1627 91.9594 60.1627 90.0436C60.1627 88.1277 58.3269 86.5746 56.0625 86.5746C53.798 86.5746 51.9622 88.1277 51.9622 90.0436C51.9622 91.9594 53.798 93.5126 56.0625 93.5126Z" fill="#0085FF"/>
<path d="M56.0625 115.943C59.0609 115.943 61.4916 113.886 61.4916 111.349C61.4916 108.813 59.0609 106.756 56.0625 106.756C53.064 106.756 50.6333 108.813 50.6333 111.349C50.6333 113.886 53.064 115.943 56.0625 115.943Z" fill="#0085FF"/>
<path d="M56.0625 135.349C57.8205 135.349 59.2458 134.143 59.2458 132.655C59.2458 131.168 57.8205 129.962 56.0625 129.962C54.3043 129.962 52.8791 131.168 52.8791 132.655C52.8791 134.143 54.3043 135.349 56.0625 135.349Z" fill="#0085FF"/>
<path d="M56.0625 158.851C59.2543 158.851 61.8419 156.662 61.8419 153.961C61.8419 151.261 59.2543 149.072 56.0625 149.072C52.8706 149.072 50.283 151.261 50.283 153.961C50.283 156.662 52.8706 158.851 56.0625 158.851Z" fill="#0085FF"/>
<path d="M56.0625 177.359C57.428 177.359 58.5349 176.422 58.5349 175.267C58.5349 174.112 57.428 173.175 56.0625 173.175C54.6969 173.175 53.59 174.112 53.59 175.267C53.59 176.422 54.6969 177.359 56.0625 177.359Z" fill="#0085FF"/>
<path d="M81.2452 7.3302C82.8838 7.3302 84.2121 6.20633 84.2121 4.81998C84.2121 3.43362 82.8838 2.30975 81.2452 2.30975C79.6066 2.30975 78.2782 3.43362 78.2782 4.81998C78.2782 6.20633 79.6066 7.3302 81.2452 7.3302Z" fill="#0085FF"/>
<path d="M81.2452 31.1725C84.5395 31.1725 87.21 28.913 87.21 26.1259C87.21 23.3387 84.5395 21.0793 81.2452 21.0793C77.9509 21.0793 75.2803 23.3387 75.2803 26.1259C75.2803 28.913 77.9509 31.1725 81.2452 31.1725Z" fill="#0085FF"/>
<path d="M81.2452 49.4888C82.5879 49.4888 83.6764 48.5678 83.6764 47.4318C83.6764 46.2957 82.5879 45.3748 81.2452 45.3748C79.9024 45.3748 78.8139 46.2957 78.8139 47.4318C78.8139 48.5678 79.9024 49.4888 81.2452 49.4888Z" fill="#0085FF"/>
<path d="M81.2452 73.3572C84.2607 73.3572 86.7052 71.289 86.7052 68.7377C86.7052 66.1864 84.2607 64.1182 81.2452 64.1182C78.2297 64.1182 75.7851 66.1864 75.7851 68.7377C75.7851 71.289 78.2297 73.3572 81.2452 73.3572Z" fill="#0085FF"/>
<path d="M81.2452 95.1338C84.5679 95.1338 87.2615 92.8548 87.2615 90.0436C87.2615 87.2324 84.5679 84.9534 81.2452 84.9534C77.9224 84.9534 75.2288 87.2324 75.2288 90.0436C75.2288 92.8548 77.9224 95.1338 81.2452 95.1338Z" fill="#0085FF"/>
<path d="M81.2452 113.738C82.8041 113.738 84.0679 112.668 84.0679 111.349C84.0679 110.031 82.8041 108.961 81.2452 108.961C79.6862 108.961 78.4224 110.031 78.4224 111.349C78.4224 112.668 79.6862 113.738 81.2452 113.738Z" fill="#0085FF"/>
<path d="M81.2452 136.142C83.521 136.142 85.366 134.581 85.366 132.655C85.366 130.73 83.521 129.169 81.2452 129.169C78.9693 129.169 77.1244 130.73 77.1244 132.655C77.1244 134.581 78.9693 136.142 81.2452 136.142Z" fill="#0085FF"/>
<path d="M81.2452 156.55C82.935 156.55 84.3049 155.391 84.3049 153.961C84.3049 152.532 82.935 151.373 81.2452 151.373C79.5553 151.373 78.1855 152.532 78.1855 153.961C78.1855 155.391 79.5553 156.55 81.2452 156.55Z" fill="#0085FF"/>
<path d="M81.2452 176.47C82.0303 176.47 82.6668 175.931 82.6668 175.267C82.6668 174.603 82.0303 174.064 81.2452 174.064C80.46 174.064 79.8235 174.603 79.8235 175.267C79.8235 175.931 80.46 176.47 81.2452 176.47Z" fill="#0085FF"/>
<path d="M106.428 8.58531C108.886 8.58531 110.878 6.89951 110.878 4.81998C110.878 2.74044 108.886 1.05464 106.428 1.05464C103.97 1.05464 101.977 2.74044 101.977 4.81998C101.977 6.89951 103.97 8.58531 106.428 8.58531Z" fill="#0085FF"/>
<path d="M106.428 30.7454C109.443 30.7454 111.888 28.6772 111.888 26.1259C111.888 23.5746 109.443 21.5064 106.428 21.5064C103.412 21.5064 100.968 23.5746 100.968 26.1259C100.968 28.6772 103.412 30.7454 106.428 30.7454Z" fill="#0085FF"/>
<path d="M106.428 48.347C107.025 48.347 107.51 47.9372 107.51 47.4318C107.51 46.9263 107.025 46.5166 106.428 46.5166C105.83 46.5166 105.346 46.9263 105.346 47.4318C105.346 47.9372 105.83 48.347 106.428 48.347Z" fill="#0085FF"/>
<path d="M106.428 73.0085C109.216 73.0085 111.476 71.0964 111.476 68.7377C111.476 66.3789 109.216 64.4668 106.428 64.4668C103.64 64.4668 101.38 66.3789 101.38 68.7377C101.38 71.0964 103.64 73.0085 106.428 73.0085Z" fill="#0085FF"/>
<path d="M106.428 95.2296C109.813 95.2296 112.558 92.9078 112.558 90.0436C112.558 87.1794 109.813 84.8575 106.428 84.8575C103.043 84.8575 100.298 87.1794 100.298 90.0436C100.298 92.9078 103.043 95.2296 106.428 95.2296Z" fill="#0085FF"/>
<path d="M106.428 115.08C108.863 115.08 110.837 113.41 110.837 111.349C110.837 109.289 108.863 107.619 106.428 107.619C103.993 107.619 102.019 109.289 102.019 111.349C102.019 113.41 103.993 115.08 106.428 115.08Z" fill="#0085FF"/>
<path d="M106.428 136.83C109.153 136.83 111.363 134.961 111.363 132.655C111.363 130.35 109.153 128.48 106.428 128.48C103.703 128.48 101.493 130.35 101.493 132.655C101.493 134.961 103.703 136.83 106.428 136.83Z" fill="#0085FF"/>
<path d="M106.428 157.282C108.596 157.282 110.353 155.795 110.353 153.961C110.353 152.127 108.596 150.64 106.428 150.64C104.26 150.64 102.503 152.127 102.503 153.961C102.503 155.795 104.26 157.282 106.428 157.282Z" fill="#0085FF"/>
<path d="M106.428 177.682C108.004 177.682 109.282 176.601 109.282 175.267C109.282 173.934 108.004 172.853 106.428 172.853C104.852 172.853 103.574 173.934 103.574 175.267C103.574 176.601 104.852 177.682 106.428 177.682Z" fill="#0085FF"/>
<path d="M131.611 6.05766C132.419 6.05766 133.073 5.50353 133.073 4.81998C133.073 4.13642 132.419 3.5823 131.611 3.5823C130.803 3.5823 130.148 4.13642 130.148 4.81998C130.148 5.50353 130.803 6.05766 131.611 6.05766Z" fill="#0085FF"/>
<path d="M131.611 28.9847C133.477 28.9847 134.99 27.7048 134.99 26.1259C134.99 24.547 133.477 23.267 131.611 23.267C129.744 23.267 128.232 24.547 128.232 26.1259C128.232 27.7048 129.744 28.9847 131.611 28.9847Z" fill="#0085FF"/>
<path d="M131.611 48.3034C132.18 48.3034 132.641 47.9132 132.641 47.4318C132.641 46.9504 132.18 46.5602 131.611 46.5602C131.042 46.5602 130.58 46.9504 130.58 47.4318C130.58 47.9132 131.042 48.3034 131.611 48.3034Z" fill="#0085FF"/>
<path d="M131.611 71.1607C133.192 71.1607 134.475 70.0759 134.475 68.7377C134.475 67.3995 133.192 66.3146 131.611 66.3146C130.029 66.3146 128.747 67.3995 128.747 68.7377C128.747 70.0759 130.029 71.1607 131.611 71.1607Z" fill="#0085FF"/>
<path d="M131.611 95.2209C134.99 95.2209 137.73 92.9029 137.73 90.0436C137.73 87.1842 134.99 84.8662 131.611 84.8662C128.231 84.8662 125.491 87.1842 125.491 90.0436C125.491 92.9029 128.231 95.2209 131.611 95.2209Z" fill="#0085FF"/>
<path d="M131.611 116.283C134.831 116.283 137.442 114.074 137.442 111.349C137.442 108.625 134.831 106.416 131.611 106.416C128.39 106.416 125.78 108.625 125.78 111.349C125.78 114.074 128.39 116.283 131.611 116.283Z" fill="#0085FF"/>
<path d="M131.611 135.305C133.34 135.305 134.742 134.119 134.742 132.655C134.742 131.192 133.34 130.006 131.611 130.006C129.881 130.006 128.479 131.192 128.479 132.655C128.479 134.119 129.881 135.305 131.611 135.305Z" fill="#0085FF"/>
<path d="M131.611 156.271C133.118 156.271 134.341 155.237 134.341 153.961C134.341 152.686 133.118 151.652 131.611 151.652C130.103 151.652 128.881 152.686 128.881 153.961C128.881 155.237 130.103 156.271 131.611 156.271Z" fill="#0085FF"/>
<path d="M131.611 177.987C133.386 177.987 134.825 176.769 134.825 175.267C134.825 173.765 133.386 172.548 131.611 172.548C129.835 172.548 128.396 173.765 128.396 175.267C128.396 176.769 129.835 177.987 131.611 177.987Z" fill="#0085FF"/>
<path d="M156.793 9.21286C159.661 9.21286 161.986 7.2461 161.986 4.81998C161.986 2.39385 159.661 0.427087 156.793 0.427087C153.926 0.427087 151.601 2.39385 151.601 4.81998C151.601 7.2461 153.926 9.21286 156.793 9.21286Z" fill="#0085FF"/>
<path d="M156.793 29.8215C159.206 29.8215 161.161 28.1669 161.161 26.1259C161.161 24.0849 159.206 22.4303 156.793 22.4303C154.381 22.4303 152.425 24.0849 152.425 26.1259C152.425 28.1669 154.381 29.8215 156.793 29.8215Z" fill="#0085FF"/>
<path d="M156.793 50.9356C159.081 50.9356 160.935 49.3669 160.935 47.4318C160.935 45.4967 159.081 43.9279 156.793 43.9279C154.506 43.9279 152.652 45.4967 152.652 47.4318C152.652 49.3669 154.506 50.9356 156.793 50.9356Z" fill="#0085FF"/>
<path d="M156.793 71.274C158.449 71.274 159.791 70.1385 159.791 68.7377C159.791 67.3369 158.449 66.2013 156.793 66.2013C155.138 66.2013 153.795 67.3369 153.795 68.7377C153.795 70.1385 155.138 71.274 156.793 71.274Z" fill="#0085FF"/>
<path d="M156.793 94.8113C159.906 94.8113 162.429 92.6767 162.429 90.0436C162.429 87.4105 159.906 85.2759 156.793 85.2759C153.681 85.2759 151.158 87.4105 151.158 90.0436C151.158 92.6767 153.681 94.8113 156.793 94.8113Z" fill="#0085FF"/>
<path d="M156.793 113.633C158.284 113.633 159.492 112.611 159.492 111.349C159.492 110.088 158.284 109.066 156.793 109.066C155.303 109.066 154.094 110.088 154.094 111.349C154.094 112.611 155.303 113.633 156.793 113.633Z" fill="#0085FF"/>
<path d="M156.793 135.628C158.733 135.628 160.306 134.297 160.306 132.655C160.306 131.014 158.733 129.683 156.793 129.683C154.853 129.683 153.28 131.014 153.28 132.655C153.28 134.297 154.853 135.628 156.793 135.628Z" fill="#0085FF"/>
<path d="M156.793 155.766C157.971 155.766 158.926 154.958 158.926 153.961C158.926 152.965 157.971 152.157 156.793 152.157C155.616 152.157 154.661 152.965 154.661 153.961C154.661 154.958 155.616 155.766 156.793 155.766Z" fill="#0085FF"/>
<path d="M156.793 178.292C158.768 178.292 160.368 176.938 160.368 175.267C160.368 173.597 158.768 172.243 156.793 172.243C154.819 172.243 153.219 173.597 153.219 175.267C153.219 176.938 154.819 178.292 156.793 178.292Z" fill="#0085FF"/>
<path d="M181.976 6.09252C182.807 6.09252 183.48 5.52278 183.48 4.81998C183.48 4.11717 182.807 3.54743 181.976 3.54743C181.145 3.54743 180.472 4.11717 180.472 4.81998C180.472 5.52278 181.145 6.09252 181.976 6.09252Z" fill="#0085FF"/>
<path d="M181.976 27.1369C182.636 27.1369 183.171 26.6843 183.171 26.1259C183.171 25.5675 182.636 25.1148 181.976 25.1148C181.316 25.1148 180.781 25.5675 180.781 26.1259C180.781 26.6843 181.316 27.1369 181.976 27.1369Z" fill="#0085FF"/>
<path d="M181.976 51.8682C184.872 51.8682 187.22 49.882 187.22 47.4318C187.22 44.9816 184.872 42.9953 181.976 42.9953C179.08 42.9953 176.732 44.9816 176.732 47.4318C176.732 49.882 179.08 51.8682 181.976 51.8682Z" fill="#0085FF"/>
<path d="M181.976 70.2543C182.966 70.2543 183.769 69.5753 183.769 68.7377C183.769 67.9001 182.966 67.2211 181.976 67.2211C180.986 67.2211 180.183 67.9001 180.183 68.7377C180.183 69.5753 180.986 70.2543 181.976 70.2543Z" fill="#0085FF"/>
<path d="M181.976 93.2424C184.064 93.2424 185.757 91.8102 185.757 90.0436C185.757 88.2769 184.064 86.8448 181.976 86.8448C179.888 86.8448 178.195 88.2769 178.195 90.0436C178.195 91.8102 179.888 93.2424 181.976 93.2424Z" fill="#0085FF"/>
<path d="M181.976 116.448C185.304 116.448 188.003 114.166 188.003 111.349C188.003 108.533 185.304 106.251 181.976 106.251C178.648 106.251 175.949 108.533 175.949 111.349C175.949 114.166 178.648 116.448 181.976 116.448Z" fill="#0085FF"/>
<path d="M181.976 133.849C182.756 133.849 183.387 133.315 183.387 132.655C183.387 131.996 182.756 131.461 181.976 131.461C181.197 131.461 180.565 131.996 180.565 132.655C180.565 133.315 181.197 133.849 181.976 133.849Z" fill="#0085FF"/>
<path d="M181.976 158.982C185.253 158.982 187.91 156.734 187.91 153.961C187.91 151.189 185.253 148.941 181.976 148.941C178.699 148.941 176.042 151.189 176.042 153.961C176.042 156.734 178.699 158.982 181.976 158.982Z" fill="#0085FF"/>
<path d="M181.976 180C185.066 180 187.57 177.881 187.57 175.267C187.57 172.653 185.066 170.534 181.976 170.534C178.887 170.534 176.382 172.653 176.382 175.267C176.382 177.881 178.887 180 181.976 180Z" fill="#0085FF"/>
<path d="M207.159 6.31914C208.137 6.31914 208.931 5.64794 208.931 4.81998C208.931 3.99201 208.137 3.32082 207.159 3.32082C206.18 3.32082 205.387 3.99201 205.387 4.81998C205.387 5.64794 206.18 6.31914 207.159 6.31914Z" fill="#0085FF"/>
<path d="M207.159 27.3897C207.984 27.3897 208.653 26.8239 208.653 26.1259C208.653 25.4279 207.984 24.862 207.159 24.862C206.334 24.862 205.665 25.4279 205.665 26.1259C205.665 26.8239 206.334 27.3897 207.159 27.3897Z" fill="#0085FF"/>
<path d="M207.159 51.3366C209.708 51.3366 211.774 49.5883 211.774 47.4318C211.774 45.2752 209.708 43.527 207.159 43.527C204.61 43.527 202.543 45.2752 202.543 47.4318C202.543 49.5883 204.61 51.3366 207.159 51.3366Z" fill="#0085FF"/>
<path d="M207.159 72.3723C209.531 72.3723 211.455 70.745 211.455 68.7377C211.455 66.7303 209.531 65.1031 207.159 65.1031C204.786 65.1031 202.863 66.7303 202.863 68.7377C202.863 70.745 204.786 72.3723 207.159 72.3723Z" fill="#0085FF"/>
<path d="M207.159 94.9856C210.385 94.9856 213 92.773 213 90.0436C213 87.3142 210.385 85.1016 207.159 85.1016C203.933 85.1016 201.318 87.3142 201.318 90.0436C201.318 92.773 203.933 94.9856 207.159 94.9856Z" fill="#0085FF"/>
<path d="M207.159 115.455C209.839 115.455 212.011 113.617 212.011 111.349C212.011 109.082 209.839 107.244 207.159 107.244C204.479 107.244 202.307 109.082 202.307 111.349C202.307 113.617 204.479 115.455 207.159 115.455Z" fill="#0085FF"/>
<path d="M207.159 136.647C209.765 136.647 211.877 134.86 211.877 132.655C211.877 130.451 209.765 128.663 207.159 128.663C204.553 128.663 202.44 130.451 202.44 132.655C202.44 134.86 204.553 136.647 207.159 136.647Z" fill="#0085FF"/>
<path d="M207.159 157.247C209.304 157.247 211.043 155.776 211.043 153.961C211.043 152.146 209.304 150.675 207.159 150.675C205.014 150.675 203.275 152.146 203.275 153.961C203.275 155.776 205.014 157.247 207.159 157.247Z" fill="#0085FF"/>
<path d="M207.159 179.407C209.861 179.407 212.052 177.554 212.052 175.267C212.052 172.981 209.861 171.127 207.159 171.127C204.456 171.127 202.265 172.981 202.265 175.267C202.265 177.554 204.456 179.407 207.159 179.407Z" fill="#0085FF"/>
</svg>
