<svg width="365" height="374" viewBox="0 0 365 374" fill="none" xmlns="http://www.w3.org/2000/svg">
<path d="M-92.9767 -79.6045C-91.3134 -79.6045 -89.965 -80.951 -89.965 -82.6119C-89.965 -84.2729 -91.3134 -85.6194 -92.9767 -85.6194C-94.64 -85.6194 -95.9883 -84.2729 -95.9883 -82.6119C-95.9883 -80.951 -94.64 -79.6045 -92.9767 -79.6045Z" fill="#0085FF"/>
<path d="M-92.9767 -45.9811C-90.5242 -45.9811 -88.5361 -47.9664 -88.5361 -50.4154C-88.5361 -52.8645 -90.5242 -54.8498 -92.9767 -54.8498C-95.4291 -54.8498 -97.4172 -52.8645 -97.4172 -50.4154C-97.4172 -47.9664 -95.4291 -45.9811 -92.9767 -45.9811Z" fill="#0085FF"/>
<path d="M-92.9767 -15.8701C-91.6776 -15.8701 -90.6245 -16.9217 -90.6245 -18.219C-90.6245 -19.5162 -91.6776 -20.5678 -92.9767 -20.5678C-94.2758 -20.5678 -95.3289 -19.5162 -95.3289 -18.219C-95.3289 -16.9217 -94.2758 -15.8701 -92.9767 -15.8701Z" fill="#0085FF"/>
<path d="M-92.9767 18.5875C-90.4271 18.5875 -88.3603 16.5235 -88.3603 13.9775C-88.3603 11.4315 -90.4271 9.36757 -92.9767 9.36757C-95.5263 9.36757 -97.5931 11.4315 -97.5931 13.9775C-97.5931 16.5235 -95.5263 18.5875 -92.9767 18.5875Z" fill="#0085FF"/>
<path d="M-92.9767 50.3888C-90.6457 50.3888 -88.756 48.5018 -88.756 46.174C-88.756 43.8462 -90.6457 41.9592 -92.9767 41.9592C-95.3077 41.9592 -97.1974 43.8462 -97.1974 46.174C-97.1974 48.5018 -95.3077 50.3888 -92.9767 50.3888Z" fill="#0085FF"/>
<path d="M-92.9767 82.0145C-90.9613 82.0145 -89.3275 80.383 -89.3275 78.3705C-89.3275 76.3579 -90.9613 74.7264 -92.9767 74.7264C-94.9921 74.7264 -96.6258 76.3579 -96.6258 78.3705C-96.6258 80.383 -94.9921 82.0145 -92.9767 82.0145Z" fill="#0085FF"/>
<path d="M-92.9767 113.948C-91.107 113.948 -89.5913 112.434 -89.5913 110.567C-89.5913 108.7 -91.107 107.186 -92.9767 107.186C-94.8464 107.186 -96.3621 108.7 -96.3621 110.567C-96.3621 112.434 -94.8464 113.948 -92.9767 113.948Z" fill="#0085FF"/>
<path d="M-92.9767 148.23C-89.9536 148.23 -87.503 145.782 -87.503 142.763C-87.503 139.745 -89.9536 137.297 -92.9767 137.297C-95.9998 137.297 -98.4504 139.745 -98.4504 142.763C-98.4504 145.782 -95.9998 148.23 -92.9767 148.23Z" fill="#0085FF"/>
<path d="M-92.9767 180.887C-89.6987 180.887 -87.0413 178.233 -87.0413 174.96C-87.0413 171.686 -89.6987 169.033 -92.9767 169.033C-96.2547 169.033 -98.9121 171.686 -98.9121 174.96C-98.9121 178.233 -96.2547 180.887 -92.9767 180.887Z" fill="#0085FF"/>
<path d="M-92.9767 212.535C-90.0022 212.535 -87.5909 210.127 -87.5909 207.156C-87.5909 204.186 -90.0022 201.778 -92.9767 201.778C-95.9512 201.778 -98.3625 204.186 -98.3625 207.156C-98.3625 210.127 -95.9512 212.535 -92.9767 212.535Z" fill="#0085FF"/>
<path d="M-92.9767 245.368C-89.6501 245.368 -86.9534 242.675 -86.9534 239.353C-86.9534 236.031 -89.6501 233.338 -92.9767 233.338C-96.3033 233.338 -99 236.031 -99 239.353C-99 242.675 -96.3033 245.368 -92.9767 245.368Z" fill="#0085FF"/>
<path d="M-92.9767 274.008C-91.6169 274.008 -90.5146 272.907 -90.5146 271.549C-90.5146 270.191 -91.6169 269.091 -92.9767 269.091C-94.3365 269.091 -95.4388 270.191 -95.4388 271.549C-95.4388 272.907 -94.3365 274.008 -92.9767 274.008Z" fill="#0085FF"/>
<path d="M-92.9767 306.095C-91.6776 306.095 -90.6245 305.043 -90.6245 303.746C-90.6245 302.449 -91.6776 301.397 -92.9767 301.397C-94.2758 301.397 -95.3289 302.449 -95.3289 303.746C-95.3289 305.043 -94.2758 306.095 -92.9767 306.095Z" fill="#0085FF"/>
<path d="M-92.9767 339.499C-91.0099 339.499 -89.4155 337.906 -89.4155 335.942C-89.4155 333.978 -91.0099 332.386 -92.9767 332.386C-94.9435 332.386 -96.5379 333.978 -96.5379 335.942C-96.5379 337.906 -94.9435 339.499 -92.9767 339.499Z" fill="#0085FF"/>
<path d="M-92.9767 370.729C-91.5441 370.729 -90.3827 369.569 -90.3827 368.139C-90.3827 366.708 -91.5441 365.548 -92.9767 365.548C-94.4093 365.548 -95.5707 366.708 -95.5707 368.139C-95.5707 369.569 -94.4093 370.729 -92.9767 370.729Z" fill="#0085FF"/>
<path d="M-60.7351 -77.7385C-58.0399 -77.7385 -55.8549 -79.9204 -55.8549 -82.6119C-55.8549 -85.3034 -58.0399 -87.4853 -60.7351 -87.4853C-63.4304 -87.4853 -65.6153 -85.3034 -65.6153 -82.6119C-65.6153 -79.9204 -63.4304 -77.7385 -60.7351 -77.7385Z" fill="#0085FF"/>
<path d="M-60.7351 -47.0568C-58.8776 -47.0568 -57.3717 -48.5605 -57.3717 -50.4154C-57.3717 -52.2704 -58.8776 -53.7741 -60.7351 -53.7741C-62.5927 -53.7741 -64.0985 -52.2704 -64.0985 -50.4154C-64.0985 -48.5605 -62.5927 -47.0568 -60.7351 -47.0568Z" fill="#0085FF"/>
<path d="M-60.7351 -12.5773C-57.6149 -12.5773 -55.0855 -15.1031 -55.0855 -18.219C-55.0855 -21.3348 -57.6149 -23.8607 -60.7351 -23.8607C-63.8553 -23.8607 -66.3847 -21.3348 -66.3847 -18.219C-66.3847 -15.1031 -63.8553 -12.5773 -60.7351 -12.5773Z" fill="#0085FF"/>
<path d="M-60.7351 19.7509C-57.5421 19.7509 -54.9536 17.1661 -54.9536 13.9775C-54.9536 10.7889 -57.5421 8.2041 -60.7351 8.2041C-63.9282 8.2041 -66.5166 10.7889 -66.5166 13.9775C-66.5166 17.1661 -63.9282 19.7509 -60.7351 19.7509Z" fill="#0085FF"/>
<path d="M-60.7351 50.4986C-58.3434 50.4986 -56.4045 48.5624 -56.4045 46.174C-56.4045 43.7856 -58.3434 41.8494 -60.7351 41.8494C-63.1269 41.8494 -65.0658 43.7856 -65.0658 46.174C-65.0658 48.5624 -63.1269 50.4986 -60.7351 50.4986Z" fill="#0085FF"/>
<path d="M-60.7351 82.1902C-58.6226 82.1902 -56.9101 80.48 -56.9101 78.3705C-56.9101 76.2609 -58.6226 74.5508 -60.7351 74.5508C-62.8476 74.5508 -64.5602 76.2609 -64.5602 78.3705C-64.5602 80.48 -62.8476 82.1902 -60.7351 82.1902Z" fill="#0085FF"/>
<path d="M-60.7351 115.331C-58.1006 115.331 -55.9648 113.198 -55.9648 110.567C-55.9648 107.936 -58.1006 105.803 -60.7351 105.803C-63.3697 105.803 -65.5054 107.936 -65.5054 110.567C-65.5054 113.198 -63.3697 115.331 -60.7351 115.331Z" fill="#0085FF"/>
<path d="M-60.7351 147.747C-57.9792 147.747 -55.745 145.516 -55.745 142.763C-55.745 140.011 -57.9792 137.78 -60.7351 137.78C-63.4911 137.78 -65.7252 140.011 -65.7252 142.763C-65.7252 145.516 -63.4911 147.747 -60.7351 147.747Z" fill="#0085FF"/>
<path d="M-60.7351 180.426C-57.7121 180.426 -55.2614 177.979 -55.2614 174.96C-55.2614 171.941 -57.7121 169.494 -60.7351 169.494C-63.7582 169.494 -66.2089 171.941 -66.2089 174.96C-66.2089 177.979 -63.7582 180.426 -60.7351 180.426Z" fill="#0085FF"/>
<path d="M-60.7351 211.349C-58.4162 211.349 -56.5364 209.472 -56.5364 207.156C-56.5364 204.841 -58.4162 202.964 -60.7351 202.964C-63.054 202.964 -64.9339 204.841 -64.9339 207.156C-64.9339 209.472 -63.054 211.349 -60.7351 211.349Z" fill="#0085FF"/>
<path d="M-60.7351 244.38C-57.9549 244.38 -55.701 242.129 -55.701 239.353C-55.701 236.577 -57.9549 234.326 -60.7351 234.326C-63.5154 234.326 -65.7692 236.577 -65.7692 239.353C-65.7692 242.129 -63.5154 244.38 -60.7351 244.38Z" fill="#0085FF"/>
<path d="M-60.7351 278.003C-57.1657 278.003 -54.2722 275.114 -54.2722 271.549C-54.2722 267.985 -57.1657 265.095 -60.7351 265.095C-64.3045 265.095 -67.1981 267.985 -67.1981 271.549C-67.1981 275.114 -64.3045 278.003 -60.7351 278.003Z" fill="#0085FF"/>
<path d="M-60.7351 306.643C-59.1325 306.643 -57.8334 305.346 -57.8334 303.746C-57.8334 302.145 -59.1325 300.848 -60.7351 300.848C-62.3377 300.848 -63.6369 302.145 -63.6369 303.746C-63.6369 305.346 -62.3377 306.643 -60.7351 306.643Z" fill="#0085FF"/>
<path d="M-60.7351 338.686C-59.2175 338.686 -57.9873 337.458 -57.9873 335.942C-57.9873 334.427 -59.2175 333.198 -60.7351 333.198C-62.2527 333.198 -63.483 334.427 -63.483 335.942C-63.483 337.458 -62.2527 338.686 -60.7351 338.686Z" fill="#0085FF"/>
<path d="M-60.7351 370.663C-59.3389 370.663 -58.2071 369.533 -58.2071 368.139C-58.2071 366.745 -59.3389 365.614 -60.7351 365.614C-62.1313 365.614 -63.2632 366.745 -63.2632 368.139C-63.2632 369.533 -62.1313 370.663 -60.7351 370.663Z" fill="#0085FF"/>
<path d="M-28.4936 -78.8581C-26.4175 -78.8581 -24.7345 -80.5387 -24.7345 -82.6119C-24.7345 -84.6851 -26.4175 -86.3657 -28.4936 -86.3657C-30.5696 -86.3657 -32.2526 -84.6851 -32.2526 -82.6119C-32.2526 -80.5387 -30.5696 -78.8581 -28.4936 -78.8581Z" fill="#0085FF"/>
<path d="M-28.4936 -47.2104C-26.721 -47.2104 -25.2841 -48.6454 -25.2841 -50.4154C-25.2841 -52.1855 -26.721 -53.6205 -28.4936 -53.6205C-30.2661 -53.6205 -31.7031 -52.1855 -31.7031 -50.4154C-31.7031 -48.6454 -30.2661 -47.2104 -28.4936 -47.2104Z" fill="#0085FF"/>
<path d="M-28.4936 -14.4432C-26.4053 -14.4432 -24.7125 -16.1337 -24.7125 -18.219C-24.7125 -20.3043 -26.4053 -21.9947 -28.4936 -21.9947C-30.5818 -21.9947 -32.2746 -20.3043 -32.2746 -18.219C-32.2746 -16.1337 -30.5818 -14.4432 -28.4936 -14.4432Z" fill="#0085FF"/>
<path d="M-28.4936 20.0802C-25.1184 20.0802 -22.3823 17.3479 -22.3823 13.9775C-22.3823 10.6071 -25.1184 7.87482 -28.4936 7.87482C-31.8687 7.87482 -34.6048 10.6071 -34.6048 13.9775C-34.6048 17.3479 -31.8687 20.0802 -28.4936 20.0802Z" fill="#0085FF"/>
<path d="M-28.4936 52.0791C-25.2277 52.0791 -22.5802 49.4353 -22.5802 46.174C-22.5802 42.9127 -25.2277 40.2689 -28.4936 40.2689C-31.7594 40.2689 -34.407 42.9127 -34.407 46.174C-34.407 49.4353 -31.7594 52.0791 -28.4936 52.0791Z" fill="#0085FF"/>
<path d="M-28.4936 83.5512C-25.6283 83.5512 -23.3056 81.2317 -23.3056 78.3705C-23.3056 75.5092 -25.6283 73.1898 -28.4936 73.1898C-31.3588 73.1898 -33.6815 75.5092 -33.6815 78.3705C-33.6815 81.2317 -31.3588 83.5512 -28.4936 83.5512Z" fill="#0085FF"/>
<path d="M-28.4936 114.848C-26.1261 114.848 -24.2069 112.931 -24.2069 110.567C-24.2069 108.203 -26.1261 106.286 -28.4936 106.286C-30.861 106.286 -32.7802 108.203 -32.7802 110.567C-32.7802 112.931 -30.861 114.848 -28.4936 114.848Z" fill="#0085FF"/>
<path d="M-28.4936 146.1C-26.6482 146.1 -25.1522 144.606 -25.1522 142.763C-25.1522 140.921 -26.6482 139.427 -28.4936 139.427C-30.339 139.427 -31.835 140.921 -31.835 142.763C-31.835 144.606 -30.339 146.1 -28.4936 146.1Z" fill="#0085FF"/>
<path d="M-28.4936 181.041C-25.1306 181.041 -22.4043 178.318 -22.4043 174.96C-22.4043 171.602 -25.1306 168.879 -28.4936 168.879C-31.8566 168.879 -34.5828 171.602 -34.5828 174.96C-34.5828 178.318 -31.8566 181.041 -28.4936 181.041Z" fill="#0085FF"/>
<path d="M-28.4936 211.722C-25.9683 211.722 -23.9211 209.678 -23.9211 207.156C-23.9211 204.635 -25.9683 202.59 -28.4936 202.59C-31.0189 202.59 -33.066 204.635 -33.066 207.156C-33.066 209.678 -31.0189 211.722 -28.4936 211.722Z" fill="#0085FF"/>
<path d="M-28.4936 244.797C-25.4827 244.797 -23.0418 242.36 -23.0418 239.353C-23.0418 236.346 -25.4827 233.909 -28.4936 233.909C-31.5045 233.909 -33.9453 236.346 -33.9453 239.353C-33.9453 242.36 -31.5045 244.797 -28.4936 244.797Z" fill="#0085FF"/>
<path d="M-28.4936 274.82C-26.6846 274.82 -25.2181 273.356 -25.2181 271.549C-25.2181 269.743 -26.6846 268.278 -28.4936 268.278C-30.3026 268.278 -31.769 269.743 -31.769 271.549C-31.769 273.356 -30.3026 274.82 -28.4936 274.82Z" fill="#0085FF"/>
<path d="M-28.4936 309.3C-25.4219 309.3 -22.9319 306.813 -22.9319 303.746C-22.9319 300.678 -25.4219 298.192 -28.4936 298.192C-31.5652 298.192 -34.0552 300.678 -34.0552 303.746C-34.0552 306.813 -31.5652 309.3 -28.4936 309.3Z" fill="#0085FF"/>
<path d="M-28.4936 338.928C-26.8424 338.928 -25.5039 337.591 -25.5039 335.942C-25.5039 334.293 -26.8424 332.957 -28.4936 332.957C-30.1447 332.957 -31.4832 334.293 -31.4832 335.942C-31.4832 337.591 -30.1447 338.928 -28.4936 338.928Z" fill="#0085FF"/>
<path d="M-28.4936 371.102C-26.8546 371.102 -25.5259 369.776 -25.5259 368.139C-25.5259 366.502 -26.8546 365.175 -28.4936 365.175C-30.1326 365.175 -31.4613 366.502 -31.4613 368.139C-31.4613 369.776 -30.1326 371.102 -28.4936 371.102Z" fill="#0085FF"/>
<path d="M3.74799 -77.6068C6.51609 -77.6068 8.76009 -79.8477 8.76009 -82.6119C8.76009 -85.3762 6.51609 -87.617 3.74799 -87.617C0.979881 -87.617 -1.26411 -85.3762 -1.26411 -82.6119C-1.26411 -79.8477 0.979881 -77.6068 3.74799 -77.6068Z" fill="#0085FF"/>
<path d="M3.74799 -44.642C6.94102 -44.642 9.52949 -47.2269 9.52949 -50.4154C9.52949 -53.604 6.94102 -56.1889 3.74799 -56.1889C0.554955 -56.1889 -2.03351 -53.604 -2.03351 -50.4154C-2.03351 -47.2269 0.554955 -44.642 3.74799 -44.642Z" fill="#0085FF"/>
<path d="M3.74799 -15.8701C5.04705 -15.8701 6.10015 -16.9217 6.10015 -18.219C6.10015 -19.5162 5.04705 -20.5678 3.74799 -20.5678C2.44892 -20.5678 1.39582 -19.5162 1.39582 -18.219C1.39582 -16.9217 2.44892 -15.8701 3.74799 -15.8701Z" fill="#0085FF"/>
<path d="M3.74799 19.1802C6.62536 19.1802 8.95793 16.8509 8.95793 13.9775C8.95793 11.1042 6.62536 8.77486 3.74799 8.77486C0.870613 8.77486 -1.46195 11.1042 -1.46195 13.9775C-1.46195 16.8509 0.870613 19.1802 3.74799 19.1802Z" fill="#0085FF"/>
<path d="M3.74799 51.3986C6.6375 51.3986 8.97991 49.0595 8.97991 46.174C8.97991 43.2885 6.6375 40.9494 3.74799 40.9494C0.858475 40.9494 -1.48393 43.2885 -1.48393 46.174C-1.48393 49.0595 0.858475 51.3986 3.74799 51.3986Z" fill="#0085FF"/>
<path d="M3.74799 82.5633C6.06688 82.5633 7.94672 80.6861 7.94672 78.3705C7.94672 76.0548 6.06688 74.1776 3.74799 74.1776C1.42909 74.1776 -0.450745 76.0548 -0.450745 78.3705C-0.450745 80.6861 1.42909 82.5633 3.74799 82.5633Z" fill="#0085FF"/>
<path d="M3.74799 117.153C7.39023 117.153 10.3428 114.204 10.3428 110.567C10.3428 106.93 7.39023 103.981 3.74799 103.981C0.105743 103.981 -2.84688 106.93 -2.84688 110.567C-2.84688 114.204 0.105743 117.153 3.74799 117.153Z" fill="#0085FF"/>
<path d="M3.74799 147.878C6.5768 147.878 8.87 145.588 8.87 142.763C8.87 139.939 6.5768 137.649 3.74799 137.649C0.919174 137.649 -1.37402 139.939 -1.37402 142.763C-1.37402 145.588 0.919174 147.878 3.74799 147.878Z" fill="#0085FF"/>
<path d="M3.74799 180.536C6.83175 180.536 9.33164 178.039 9.33164 174.96C9.33164 171.88 6.83175 169.384 3.74799 169.384C0.664223 169.384 -1.83566 171.88 -1.83566 174.96C-1.83566 178.039 0.664223 180.536 3.74799 180.536Z" fill="#0085FF"/>
<path d="M3.74799 212.118C6.49181 212.118 8.71613 209.896 8.71613 207.156C8.71613 204.416 6.49181 202.195 3.74799 202.195C1.00417 202.195 -1.22014 204.416 -1.22014 207.156C-1.22014 209.896 1.00417 212.118 3.74799 212.118Z" fill="#0085FF"/>
<path d="M3.74799 245.851C7.34167 245.851 10.2549 242.941 10.2549 239.353C10.2549 235.764 7.34167 232.855 3.74799 232.855C0.154305 232.855 -2.75894 235.764 -2.75894 239.353C-2.75894 242.941 0.154305 245.851 3.74799 245.851Z" fill="#0085FF"/>
<path d="M3.74799 276.906C6.71034 276.906 9.11182 274.508 9.11182 271.549C9.11182 268.591 6.71034 266.193 3.74799 266.193C0.785629 266.193 -1.61584 268.591 -1.61584 271.549C-1.61584 274.508 0.785629 276.906 3.74799 276.906Z" fill="#0085FF"/>
<path d="M3.74799 306.248C5.13204 306.248 6.25404 305.128 6.25404 303.746C6.25404 302.364 5.13204 301.243 3.74799 301.243C2.36393 301.243 1.24194 302.364 1.24194 303.746C1.24194 305.128 2.36393 306.248 3.74799 306.248Z" fill="#0085FF"/>
<path d="M3.74799 340.442C6.23685 340.442 8.25449 338.428 8.25449 335.942C8.25449 333.457 6.23685 331.442 3.74799 331.442C1.25912 331.442 -0.758507 333.457 -0.758507 335.942C-0.758507 338.428 1.25912 340.442 3.74799 340.442Z" fill="#0085FF"/>
<path d="M3.74799 371.212C5.4477 371.212 6.82559 369.836 6.82559 368.139C6.82559 366.441 5.4477 365.065 3.74799 365.065C2.04827 365.065 0.670387 366.441 0.670387 368.139C0.670387 369.836 2.04827 371.212 3.74799 371.212Z" fill="#0085FF"/>
<path d="M35.9895 -78.0678C38.5027 -78.0678 40.54 -80.1023 40.54 -82.6119C40.54 -85.1216 38.5027 -87.156 35.9895 -87.156C33.4764 -87.156 31.4391 -85.1216 31.4391 -82.6119C31.4391 -80.1023 33.4764 -78.0678 35.9895 -78.0678Z" fill="#0085FF"/>
<path d="M35.9895 -46.3323C38.2477 -46.3323 40.0784 -48.1604 40.0784 -50.4154C40.0784 -52.6705 38.2477 -54.4985 35.9895 -54.4985C33.7314 -54.4985 31.9007 -52.6705 31.9007 -50.4154C31.9007 -48.1604 33.7314 -46.3323 35.9895 -46.3323Z" fill="#0085FF"/>
<path d="M35.9895 -14.8383C37.8592 -14.8383 39.3749 -16.3519 39.3749 -18.219C39.3749 -20.086 37.8592 -21.5996 35.9895 -21.5996C34.1199 -21.5996 32.6042 -20.086 32.6042 -18.219C32.6042 -16.3519 34.1199 -14.8383 35.9895 -14.8383Z" fill="#0085FF"/>
<path d="M35.9895 16.7435C37.5193 16.7435 38.7594 15.5051 38.7594 13.9775C38.7594 12.4499 37.5193 11.2115 35.9895 11.2115C34.4598 11.2115 33.2197 12.4499 33.2197 13.9775C33.2197 15.5051 34.4598 16.7435 35.9895 16.7435Z" fill="#0085FF"/>
<path d="M35.9895 51.0913C38.7091 51.0913 40.9137 48.8897 40.9137 46.174C40.9137 43.4583 38.7091 41.2567 35.9895 41.2567C33.27 41.2567 31.0654 43.4583 31.0654 46.174C31.0654 48.8897 33.27 51.0913 35.9895 51.0913Z" fill="#0085FF"/>
<path d="M35.9895 84.6707C39.474 84.6707 42.2986 81.85 42.2986 78.3705C42.2986 74.8909 39.474 72.0702 35.9895 72.0702C32.5051 72.0702 29.6805 74.8909 29.6805 78.3705C29.6805 81.85 32.5051 84.6707 35.9895 84.6707Z" fill="#0085FF"/>
<path d="M35.9895 116.955C39.5225 116.955 42.3866 114.095 42.3866 110.567C42.3866 107.039 39.5225 104.179 35.9895 104.179C32.4566 104.179 29.5925 107.039 29.5925 110.567C29.5925 114.095 32.4566 116.955 35.9895 116.955Z" fill="#0085FF"/>
<path d="M35.9895 146.232C37.9078 146.232 39.4628 144.679 39.4628 142.763C39.4628 140.848 37.9078 139.295 35.9895 139.295C34.0713 139.295 32.5163 140.848 32.5163 142.763C32.5163 144.679 34.0713 146.232 35.9895 146.232Z" fill="#0085FF"/>
<path d="M35.9895 179.767C38.6484 179.767 40.8038 177.615 40.8038 174.96C40.8038 172.305 38.6484 170.152 35.9895 170.152C33.3307 170.152 31.1753 172.305 31.1753 174.96C31.1753 177.615 33.3307 179.767 35.9895 179.767Z" fill="#0085FF"/>
<path d="M35.9895 212.82C39.1219 212.82 41.6611 210.284 41.6611 207.156C41.6611 204.028 39.1219 201.493 35.9895 201.493C32.8572 201.493 30.318 204.028 30.318 207.156C30.318 210.284 32.8572 212.82 35.9895 212.82Z" fill="#0085FF"/>
<path d="M35.9895 245.324C39.2919 245.324 41.9689 242.651 41.9689 239.353C41.9689 236.055 39.2919 233.382 35.9895 233.382C32.6873 233.382 30.0102 236.055 30.0102 239.353C30.0102 242.651 32.6873 245.324 35.9895 245.324Z" fill="#0085FF"/>
<path d="M35.9895 275.391C38.1142 275.391 39.8365 273.671 39.8365 271.549C39.8365 269.428 38.1142 267.708 35.9895 267.708C33.8649 267.708 32.1425 269.428 32.1425 271.549C32.1425 273.671 33.8649 275.391 35.9895 275.391Z" fill="#0085FF"/>
<path d="M35.9895 306.073C37.2765 306.073 38.3197 305.031 38.3197 303.746C38.3197 302.461 37.2765 301.419 35.9895 301.419C34.7026 301.419 33.6594 302.461 33.6594 303.746C33.6594 305.031 34.7026 306.073 35.9895 306.073Z" fill="#0085FF"/>
<path d="M35.9895 339.059C37.7135 339.059 39.1111 337.664 39.1111 335.942C39.1111 334.221 37.7135 332.825 35.9895 332.825C34.2655 332.825 32.868 334.221 32.868 335.942C32.868 337.664 34.2655 339.059 35.9895 339.059Z" fill="#0085FF"/>
<path d="M35.9895 372.507C38.4056 372.507 40.3641 370.551 40.3641 368.139C40.3641 365.726 38.4056 363.77 35.9895 363.77C33.5735 363.77 31.615 365.726 31.615 368.139C31.615 370.551 33.5735 372.507 35.9895 372.507Z" fill="#0085FF"/>
<path d="M68.2311 -76.3995C71.667 -76.3995 74.4523 -79.1809 74.4523 -82.6119C74.4523 -86.043 71.667 -88.8244 68.2311 -88.8244C64.7953 -88.8244 62.01 -86.043 62.01 -82.6119C62.01 -79.1809 64.7953 -76.3995 68.2311 -76.3995Z" fill="#0085FF"/>
<path d="M68.2311 -45.5201C70.9385 -45.5201 73.1333 -47.7118 73.1333 -50.4154C73.1333 -53.1191 70.9385 -55.3108 68.2311 -55.3108C65.5237 -55.3108 63.3289 -53.1191 63.3289 -50.4154C63.3289 -47.7118 65.5237 -45.5201 68.2311 -45.5201Z" fill="#0085FF"/>
<path d="M68.2311 -11.9626C71.6912 -11.9626 74.4962 -14.7637 74.4962 -18.219C74.4962 -21.6743 71.6912 -24.4753 68.2311 -24.4753C64.771 -24.4753 61.966 -21.6743 61.966 -18.219C61.966 -14.7637 64.771 -11.9626 68.2311 -11.9626Z" fill="#0085FF"/>
<path d="M68.2311 17.9728C70.4407 17.9728 72.232 16.1841 72.232 13.9775C72.232 11.771 70.4407 9.98222 68.2311 9.98222C66.0215 9.98222 64.2302 11.771 64.2302 13.9775C64.2302 16.1841 66.0215 17.9728 68.2311 17.9728Z" fill="#0085FF"/>
<path d="M68.2311 52.6279C71.8005 52.6279 74.6941 49.7384 74.6941 46.174C74.6941 42.6096 71.8005 39.7201 68.2311 39.7201C64.6617 39.7201 61.7682 42.6096 61.7682 46.174C61.7682 49.7384 64.6617 52.6279 68.2311 52.6279Z" fill="#0085FF"/>
<path d="M68.2311 83.4634C71.0478 83.4634 73.3311 81.1832 73.3311 78.3705C73.3311 75.5577 71.0478 73.2776 68.2311 73.2776C65.4144 73.2776 63.1311 75.5577 63.1311 78.3705C63.1311 81.1832 65.4144 83.4634 68.2311 83.4634Z" fill="#0085FF"/>
<path d="M68.2311 113.706C69.9673 113.706 71.3747 112.301 71.3747 110.567C71.3747 108.833 69.9673 107.428 68.2311 107.428C66.495 107.428 65.0876 108.833 65.0876 110.567C65.0876 112.301 66.495 113.706 68.2311 113.706Z" fill="#0085FF"/>
<path d="M68.2311 149.239C71.8127 149.239 74.7161 146.34 74.7161 142.763C74.7161 139.187 71.8127 136.288 68.2311 136.288C64.6496 136.288 61.7462 139.187 61.7462 142.763C61.7462 146.34 64.6496 149.239 68.2311 149.239Z" fill="#0085FF"/>
<path d="M68.2311 178.758C70.3315 178.758 72.0342 177.057 72.0342 174.96C72.0342 172.862 70.3315 171.162 68.2311 171.162C66.1308 171.162 64.4281 172.862 64.4281 174.96C64.4281 177.057 66.1308 178.758 68.2311 178.758Z" fill="#0085FF"/>
<path d="M68.2311 209.483C69.518 209.483 70.5613 208.441 70.5613 207.156C70.5613 205.871 69.518 204.829 68.2311 204.829C66.9442 204.829 65.9009 205.871 65.9009 207.156C65.9009 208.441 66.9442 209.483 68.2311 209.483Z" fill="#0085FF"/>
<path d="M68.2311 242.646C70.0522 242.646 71.5285 241.171 71.5285 239.353C71.5285 237.534 70.0522 236.06 68.2311 236.06C66.41 236.06 64.9337 237.534 64.9337 239.353C64.9337 241.171 66.41 242.646 68.2311 242.646Z" fill="#0085FF"/>
<path d="M68.2311 277.762C71.667 277.762 74.4523 274.98 74.4523 271.549C74.4523 268.118 71.667 265.337 68.2311 265.337C64.7953 265.337 62.01 268.118 62.01 271.549C62.01 274.98 64.7953 277.762 68.2311 277.762Z" fill="#0085FF"/>
<path d="M68.2311 307.697C70.4165 307.697 72.188 305.928 72.188 303.746C72.188 301.564 70.4165 299.794 68.2311 299.794C66.0458 299.794 64.2742 301.564 64.2742 303.746C64.2742 305.928 66.0458 307.697 68.2311 307.697Z" fill="#0085FF"/>
<path d="M68.2311 341.803C71.4727 341.803 74.1006 339.179 74.1006 335.942C74.1006 332.705 71.4727 330.081 68.2311 330.081C64.9895 330.081 62.3617 332.705 62.3617 335.942C62.3617 339.179 64.9895 341.803 68.2311 341.803Z" fill="#0085FF"/>
<path d="M68.2311 371.432C70.0522 371.432 71.5285 369.957 71.5285 368.139C71.5285 366.32 70.0522 364.846 68.2311 364.846C66.41 364.846 64.9337 366.32 64.9337 368.139C64.9337 369.957 66.41 371.432 68.2311 371.432Z" fill="#0085FF"/>
<path d="M100.473 -77.1019C103.52 -77.1019 105.99 -79.5688 105.99 -82.6119C105.99 -85.655 103.52 -88.1219 100.473 -88.1219C97.4253 -88.1219 94.955 -85.655 94.955 -82.6119C94.955 -79.5688 97.4253 -77.1019 100.473 -77.1019Z" fill="#0085FF"/>
<path d="M100.473 -47.2982C102.197 -47.2982 103.594 -48.6939 103.594 -50.4154C103.594 -52.137 102.197 -53.5327 100.473 -53.5327C98.7487 -53.5327 97.3511 -52.137 97.3511 -50.4154C97.3511 -48.6939 98.7487 -47.2982 100.473 -47.2982Z" fill="#0085FF"/>
<path d="M100.473 -12.4016C103.69 -12.4016 106.298 -15.0061 106.298 -18.219C106.298 -21.4318 103.69 -24.0363 100.473 -24.0363C97.2554 -24.0363 94.6472 -21.4318 94.6472 -18.219C94.6472 -15.0061 97.2554 -12.4016 100.473 -12.4016Z" fill="#0085FF"/>
<path d="M100.473 17.5777C102.464 17.5777 104.078 15.9658 104.078 13.9775C104.078 11.9892 102.464 10.3774 100.473 10.3774C98.4816 10.3774 96.8675 11.9892 96.8675 13.9775C96.8675 15.9658 98.4816 17.5777 100.473 17.5777Z" fill="#0085FF"/>
<path d="M100.473 50.7181C102.986 50.7181 105.023 48.6836 105.023 46.174C105.023 43.6644 102.986 41.6299 100.473 41.6299C97.9595 41.6299 95.9222 43.6644 95.9222 46.174C95.9222 48.6836 97.9595 50.7181 100.473 50.7181Z" fill="#0085FF"/>
<path d="M100.473 84.1219C103.654 84.1219 106.232 81.5469 106.232 78.3705C106.232 75.194 103.654 72.619 100.473 72.619C97.2918 72.619 94.7132 75.194 94.7132 78.3705C94.7132 81.5469 97.2918 84.1219 100.473 84.1219Z" fill="#0085FF"/>
<path d="M100.473 114.804C102.816 114.804 104.715 112.907 104.715 110.567C104.715 108.227 102.816 106.33 100.473 106.33C98.1295 106.33 96.23 108.227 96.23 110.567C96.23 112.907 98.1295 114.804 100.473 114.804Z" fill="#0085FF"/>
<path d="M100.473 145.046C101.735 145.046 102.759 144.024 102.759 142.763C102.759 141.503 101.735 140.48 100.473 140.48C99.21 140.48 98.1865 141.503 98.1865 142.763C98.1865 144.024 99.21 145.046 100.473 145.046Z" fill="#0085FF"/>
<path d="M100.473 179.504C102.986 179.504 105.023 177.47 105.023 174.96C105.023 172.45 102.986 170.416 100.473 170.416C97.9595 170.416 95.9222 172.45 95.9222 174.96C95.9222 177.47 97.9595 179.504 100.473 179.504Z" fill="#0085FF"/>
<path d="M100.473 213.632C104.054 213.632 106.958 210.733 106.958 207.156C106.958 203.58 104.054 200.68 100.473 200.68C96.8911 200.68 93.9877 203.58 93.9877 207.156C93.9877 210.733 96.8911 213.632 100.473 213.632Z" fill="#0085FF"/>
<path d="M100.473 241.548C101.687 241.548 102.671 240.565 102.671 239.353C102.671 238.14 101.687 237.158 100.473 237.158C99.2586 237.158 98.2744 238.14 98.2744 239.353C98.2744 240.565 99.2586 241.548 100.473 241.548Z" fill="#0085FF"/>
<path d="M100.473 276.532C103.229 276.532 105.463 274.301 105.463 271.549C105.463 268.797 103.229 266.566 100.473 266.566C97.7167 266.566 95.4826 268.797 95.4826 271.549C95.4826 274.301 97.7167 276.532 100.473 276.532Z" fill="#0085FF"/>
<path d="M100.473 309.388C103.593 309.388 106.122 306.862 106.122 303.746C106.122 300.63 103.593 298.104 100.473 298.104C97.3525 298.104 94.8231 300.63 94.8231 303.746C94.8231 306.862 97.3525 309.388 100.473 309.388Z" fill="#0085FF"/>
<path d="M100.473 342.44C104.066 342.44 106.98 339.531 106.98 335.942C106.98 332.354 104.066 329.444 100.473 329.444C96.879 329.444 93.9658 332.354 93.9658 335.942C93.9658 339.531 96.879 342.44 100.473 342.44Z" fill="#0085FF"/>
<path d="M100.473 370.795C101.942 370.795 103.133 369.606 103.133 368.139C103.133 366.672 101.942 365.483 100.473 365.483C99.0036 365.483 97.8128 366.672 97.8128 368.139C97.8128 369.606 99.0036 370.795 100.473 370.795Z" fill="#0085FF"/>
<path d="M132.714 -79.3191C134.535 -79.3191 136.012 -80.7934 136.012 -82.6119C136.012 -84.4305 134.535 -85.9047 132.714 -85.9047C130.893 -85.9047 129.417 -84.4305 129.417 -82.6119C129.417 -80.7934 130.893 -79.3191 132.714 -79.3191Z" fill="#0085FF"/>
<path d="M132.714 -47.4739C134.341 -47.4739 135.66 -48.7909 135.66 -50.4154C135.66 -52.04 134.341 -53.357 132.714 -53.357C131.087 -53.357 129.769 -52.04 129.769 -50.4154C129.769 -48.7909 131.087 -47.4739 132.714 -47.4739Z" fill="#0085FF"/>
<path d="M132.714 -15.8042C134.05 -15.8042 135.132 -16.8853 135.132 -18.219C135.132 -19.5526 134.05 -20.6337 132.714 -20.6337C131.379 -20.6337 130.296 -19.5526 130.296 -18.219C130.296 -16.8853 131.379 -15.8042 132.714 -15.8042Z" fill="#0085FF"/>
<path d="M132.714 17.1386C134.463 17.1386 135.88 15.7233 135.88 13.9775C135.88 12.2317 134.463 10.8164 132.714 10.8164C130.966 10.8164 129.549 12.2317 129.549 13.9775C129.549 15.7233 130.966 17.1386 132.714 17.1386Z" fill="#0085FF"/>
<path d="M132.714 51.2449C135.519 51.2449 137.792 48.9746 137.792 46.174C137.792 43.3734 135.519 41.103 132.714 41.103C129.91 41.103 127.636 43.3734 127.636 46.174C127.636 48.9746 129.91 51.2449 132.714 51.2449Z" fill="#0085FF"/>
<path d="M132.714 81.356C134.365 81.356 135.704 80.0193 135.704 78.3705C135.704 76.7216 134.365 75.385 132.714 75.385C131.063 75.385 129.725 76.7216 129.725 78.3705C129.725 80.0193 131.063 81.356 132.714 81.356Z" fill="#0085FF"/>
<path d="M132.714 114.387C134.827 114.387 136.539 112.677 136.539 110.567C136.539 108.457 134.827 106.747 132.714 106.747C130.602 106.747 128.889 108.457 128.889 110.567C128.889 112.677 130.602 114.387 132.714 114.387Z" fill="#0085FF"/>
<path d="M132.714 146.21C134.62 146.21 136.166 144.667 136.166 142.763C136.166 140.86 134.62 139.317 132.714 139.317C130.808 139.317 129.263 140.86 129.263 142.763C129.263 144.667 130.808 146.21 132.714 146.21Z" fill="#0085FF"/>
<path d="M132.714 178.889C134.887 178.889 136.649 177.13 136.649 174.96C136.649 172.79 134.887 171.03 132.714 171.03C130.541 171.03 128.779 172.79 128.779 174.96C128.779 177.13 130.541 178.889 132.714 178.889Z" fill="#0085FF"/>
<path d="M132.714 213.237C136.077 213.237 138.803 210.515 138.803 207.156C138.803 203.798 136.077 201.076 132.714 201.076C129.351 201.076 126.625 203.798 126.625 207.156C126.625 210.515 129.351 213.237 132.714 213.237Z" fill="#0085FF"/>
<path d="M132.714 244.292C135.446 244.292 137.66 242.081 137.66 239.353C137.66 236.625 135.446 234.414 132.714 234.414C129.983 234.414 127.768 236.625 127.768 239.353C127.768 242.081 129.983 244.292 132.714 244.292Z" fill="#0085FF"/>
<path d="M132.714 274.82C134.523 274.82 135.99 273.356 135.99 271.549C135.99 269.743 134.523 268.278 132.714 268.278C130.905 268.278 129.439 269.743 129.439 271.549C129.439 273.356 130.905 274.82 132.714 274.82Z" fill="#0085FF"/>
<path d="M132.714 309.783C136.053 309.783 138.76 307.08 138.76 303.746C138.76 300.412 136.053 297.709 132.714 297.709C129.376 297.709 126.669 300.412 126.669 303.746C126.669 307.08 129.376 309.783 132.714 309.783Z" fill="#0085FF"/>
<path d="M132.714 340.245C135.094 340.245 137.023 338.319 137.023 335.942C137.023 333.566 135.094 331.64 132.714 331.64C130.335 331.64 128.406 333.566 128.406 335.942C128.406 338.319 130.335 340.245 132.714 340.245Z" fill="#0085FF"/>
<path d="M132.714 373.693C135.786 373.693 138.276 371.206 138.276 368.139C138.276 365.071 135.786 362.585 132.714 362.585C129.643 362.585 127.153 365.071 127.153 368.139C127.153 371.206 129.643 373.693 132.714 373.693Z" fill="#0085FF"/>
<path d="M164.956 -76.8824C168.125 -76.8824 170.693 -79.4476 170.693 -82.6119C170.693 -85.7762 168.125 -88.3414 164.956 -88.3414C161.787 -88.3414 159.218 -85.7762 159.218 -82.6119C159.218 -79.4476 161.787 -76.8824 164.956 -76.8824Z" fill="#0085FF"/>
<path d="M164.956 -44.7518C168.088 -44.7518 170.627 -47.2875 170.627 -50.4154C170.627 -53.5434 168.088 -56.0791 164.956 -56.0791C161.823 -56.0791 159.284 -53.5434 159.284 -50.4154C159.284 -47.2875 161.823 -44.7518 164.956 -44.7518Z" fill="#0085FF"/>
<path d="M164.956 -12.5114C168.112 -12.5114 170.671 -15.0668 170.671 -18.219C170.671 -21.3712 168.112 -23.9265 164.956 -23.9265C161.799 -23.9265 159.24 -21.3712 159.24 -18.219C159.24 -15.0668 161.799 -12.5114 164.956 -12.5114Z" fill="#0085FF"/>
<path d="M164.956 17.7313C167.032 17.7313 168.715 16.0507 168.715 13.9775C168.715 11.9043 167.032 10.2237 164.956 10.2237C162.88 10.2237 161.197 11.9043 161.197 13.9775C161.197 16.0507 162.88 17.7313 164.956 17.7313Z" fill="#0085FF"/>
<path d="M164.956 48.8961C166.461 48.8961 167.682 47.6774 167.682 46.174C167.682 44.6706 166.461 43.4519 164.956 43.4519C163.45 43.4519 162.23 44.6706 162.23 46.174C162.23 47.6774 163.45 48.8961 164.956 48.8961Z" fill="#0085FF"/>
<path d="M164.956 83.8585C167.991 83.8585 170.452 81.4014 170.452 78.3705C170.452 75.3395 167.991 72.8824 164.956 72.8824C161.921 72.8824 159.46 75.3395 159.46 78.3705C159.46 81.4014 161.921 83.8585 164.956 83.8585Z" fill="#0085FF"/>
<path d="M164.956 114.54C167.153 114.54 168.935 112.761 168.935 110.567C168.935 108.373 167.153 106.594 164.956 106.594C162.758 106.594 160.977 108.373 160.977 110.567C160.977 112.761 162.758 114.54 164.956 114.54Z" fill="#0085FF"/>
<path d="M164.956 148.581C168.173 148.581 170.781 145.976 170.781 142.763C170.781 139.551 168.173 136.946 164.956 136.946C161.738 136.946 159.13 139.551 159.13 142.763C159.13 145.976 161.738 148.581 164.956 148.581Z" fill="#0085FF"/>
<path d="M164.956 177.287C166.243 177.287 167.286 176.245 167.286 174.96C167.286 173.675 166.243 172.633 164.956 172.633C163.669 172.633 162.626 173.675 162.626 174.96C162.626 176.245 163.669 177.287 164.956 177.287Z" fill="#0085FF"/>
<path d="M164.956 213.237C168.319 213.237 171.045 210.515 171.045 207.156C171.045 203.798 168.319 201.076 164.956 201.076C161.593 201.076 158.867 203.798 158.867 207.156C158.867 210.515 161.593 213.237 164.956 213.237Z" fill="#0085FF"/>
<path d="M164.956 243.941C167.493 243.941 169.55 241.887 169.55 239.353C169.55 236.819 167.493 234.765 164.956 234.765C162.418 234.765 160.361 236.819 160.361 239.353C160.361 241.887 162.418 243.941 164.956 243.941Z" fill="#0085FF"/>
<path d="M164.956 276.598C167.748 276.598 170.012 274.338 170.012 271.549C170.012 268.761 167.748 266.5 164.956 266.5C162.163 266.5 159.9 268.761 159.9 271.549C159.9 274.338 162.163 276.598 164.956 276.598Z" fill="#0085FF"/>
<path d="M164.956 309.607C168.197 309.607 170.825 306.983 170.825 303.746C170.825 300.509 168.197 297.885 164.956 297.885C161.714 297.885 159.086 300.509 159.086 303.746C159.086 306.983 161.714 309.607 164.956 309.607Z" fill="#0085FF"/>
<path d="M164.956 341.079C167.797 341.079 170.1 338.779 170.1 335.942C170.1 333.105 167.797 330.806 164.956 330.806C162.115 330.806 159.812 333.105 159.812 335.942C159.812 338.779 162.115 341.079 164.956 341.079Z" fill="#0085FF"/>
<path d="M164.956 372.661C167.457 372.661 169.484 370.636 169.484 368.139C169.484 365.641 167.457 363.617 164.956 363.617C162.455 363.617 160.427 365.641 160.427 368.139C160.427 370.636 162.455 372.661 164.956 372.661Z" fill="#0085FF"/>
<path d="M197.197 -80.285C198.484 -80.285 199.527 -81.3268 199.527 -82.6119C199.527 -83.8971 198.484 -84.9389 197.197 -84.9389C195.91 -84.9389 194.867 -83.8971 194.867 -82.6119C194.867 -81.3268 195.91 -80.285 197.197 -80.285Z" fill="#0085FF"/>
<path d="M197.197 -46.5519C199.334 -46.5519 201.066 -48.2817 201.066 -50.4154C201.066 -52.5492 199.334 -54.279 197.197 -54.279C195.061 -54.279 193.328 -52.5492 193.328 -50.4154C193.328 -48.2817 195.061 -46.5519 197.197 -46.5519Z" fill="#0085FF"/>
<path d="M197.197 -13.9822C199.54 -13.9822 201.44 -15.8791 201.44 -18.219C201.44 -20.5589 199.54 -22.4557 197.197 -22.4557C194.854 -22.4557 192.955 -20.5589 192.955 -18.219C192.955 -15.8791 194.854 -13.9822 197.197 -13.9822Z" fill="#0085FF"/>
<path d="M197.197 17.907C199.371 17.907 201.132 16.1477 201.132 13.9775C201.132 11.8073 199.371 10.0481 197.197 10.0481C195.024 10.0481 193.262 11.8073 193.262 13.9775C193.262 16.1477 195.024 17.907 197.197 17.907Z" fill="#0085FF"/>
<path d="M197.197 51.4645C200.123 51.4645 202.495 49.0958 202.495 46.174C202.495 43.2522 200.123 40.8835 197.197 40.8835C194.271 40.8835 191.899 43.2522 191.899 46.174C191.899 49.0958 194.271 51.4645 197.197 51.4645Z" fill="#0085FF"/>
<path d="M197.197 80.9389C198.618 80.9389 199.769 79.789 199.769 78.3705C199.769 76.952 198.618 75.8021 197.197 75.8021C195.777 75.8021 194.625 76.952 194.625 78.3705C194.625 79.789 195.777 80.9389 197.197 80.9389Z" fill="#0085FF"/>
<path d="M197.197 115.155C199.735 115.155 201.792 113.101 201.792 110.567C201.792 108.033 199.735 105.979 197.197 105.979C194.66 105.979 192.603 108.033 192.603 110.567C192.603 113.101 194.66 115.155 197.197 115.155Z" fill="#0085FF"/>
<path d="M197.197 149.239C200.779 149.239 203.682 146.34 203.682 142.763C203.682 139.187 200.779 136.288 197.197 136.288C193.616 136.288 190.712 139.187 190.712 142.763C190.712 146.34 193.616 149.239 197.197 149.239Z" fill="#0085FF"/>
<path d="M197.197 181.041C200.56 181.041 203.287 178.318 203.287 174.96C203.287 171.602 200.56 168.879 197.197 168.879C193.834 168.879 191.108 171.602 191.108 174.96C191.108 178.318 193.834 181.041 197.197 181.041Z" fill="#0085FF"/>
<path d="M197.197 211.854C199.795 211.854 201.902 209.751 201.902 207.156C201.902 204.562 199.795 202.459 197.197 202.459C194.599 202.459 192.493 204.562 192.493 207.156C192.493 209.751 194.599 211.854 197.197 211.854Z" fill="#0085FF"/>
<path d="M197.197 245.719C200.718 245.719 203.572 242.869 203.572 239.353C203.572 235.837 200.718 232.987 197.197 232.987C193.676 232.987 190.822 235.837 190.822 239.353C190.822 242.869 193.676 245.719 197.197 245.719Z" fill="#0085FF"/>
<path d="M197.197 274.732C198.958 274.732 200.385 273.307 200.385 271.549C200.385 269.791 198.958 268.366 197.197 268.366C195.437 268.366 194.01 269.791 194.01 271.549C194.01 273.307 195.437 274.732 197.197 274.732Z" fill="#0085FF"/>
<path d="M197.197 307.192C199.103 307.192 200.649 305.649 200.649 303.746C200.649 301.842 199.103 300.299 197.197 300.299C195.291 300.299 193.746 301.842 193.746 303.746C193.746 305.649 195.291 307.192 197.197 307.192Z" fill="#0085FF"/>
<path d="M197.197 341.782C200.427 341.782 203.045 339.167 203.045 335.942C203.045 332.717 200.427 330.103 197.197 330.103C193.968 330.103 191.35 332.717 191.35 335.942C191.35 339.167 193.968 341.782 197.197 341.782Z" fill="#0085FF"/>
<path d="M197.197 373.319C200.063 373.319 202.385 371 202.385 368.139C202.385 365.278 200.063 362.958 197.197 362.958C194.332 362.958 192.009 365.278 192.009 368.139C192.009 371 194.332 373.319 197.197 373.319Z" fill="#0085FF"/>
<path d="M229.439 -78.2434C231.855 -78.2434 233.814 -80.1993 233.814 -82.6119C233.814 -85.0246 231.855 -86.9804 229.439 -86.9804C227.023 -86.9804 225.064 -85.0246 225.064 -82.6119C225.064 -80.1993 227.023 -78.2434 229.439 -78.2434Z" fill="#0085FF"/>
<path d="M229.439 -43.9396C233.02 -43.9396 235.924 -46.8389 235.924 -50.4154C235.924 -53.992 233.02 -56.8913 229.439 -56.8913C225.857 -56.8913 222.954 -53.992 222.954 -50.4154C222.954 -46.8389 225.857 -43.9396 229.439 -43.9396Z" fill="#0085FF"/>
<path d="M229.439 -11.8748C232.948 -11.8748 235.792 -14.7152 235.792 -18.219C235.792 -21.7227 232.948 -24.5631 229.439 -24.5631C225.93 -24.5631 223.086 -21.7227 223.086 -18.219C223.086 -14.7152 225.93 -11.8748 229.439 -11.8748Z" fill="#0085FF"/>
<path d="M229.439 17.7752C231.539 17.7752 233.242 16.0749 233.242 13.9775C233.242 11.8801 231.539 10.1798 229.439 10.1798C227.339 10.1798 225.636 11.8801 225.636 13.9775C225.636 16.0749 227.339 17.7752 229.439 17.7752Z" fill="#0085FF"/>
<path d="M229.439 52.5621C232.972 52.5621 235.836 49.702 235.836 46.174C235.836 42.646 232.972 39.7859 229.439 39.7859C225.906 39.7859 223.042 42.646 223.042 46.174C223.042 49.702 225.906 52.5621 229.439 52.5621Z" fill="#0085FF"/>
<path d="M229.439 82.717C231.843 82.717 233.792 80.771 233.792 78.3705C233.792 75.97 231.843 74.024 229.439 74.024C227.035 74.024 225.086 75.97 225.086 78.3705C225.086 80.771 227.035 82.717 229.439 82.717Z" fill="#0085FF"/>
<path d="M229.439 116.472C232.705 116.472 235.352 113.828 235.352 110.567C235.352 107.306 232.705 104.662 229.439 104.662C226.173 104.662 223.526 107.306 223.526 110.567C223.526 113.828 226.173 116.472 229.439 116.472Z" fill="#0085FF"/>
<path d="M229.439 147.681C232.158 147.681 234.363 145.479 234.363 142.763C234.363 140.048 232.158 137.846 229.439 137.846C226.719 137.846 224.515 140.048 224.515 142.763C224.515 145.479 226.719 147.681 229.439 147.681Z" fill="#0085FF"/>
<path d="M229.439 178.406C231.345 178.406 232.89 176.863 232.89 174.96C232.89 173.056 231.345 171.513 229.439 171.513C227.533 171.513 225.988 173.056 225.988 174.96C225.988 176.863 227.533 178.406 229.439 178.406Z" fill="#0085FF"/>
<path d="M229.439 212.754C232.535 212.754 235.045 210.248 235.045 207.156C235.045 204.065 232.535 201.559 229.439 201.559C226.343 201.559 223.833 204.065 223.833 207.156C223.833 210.248 226.343 212.754 229.439 212.754Z" fill="#0085FF"/>
<path d="M229.439 244.951C232.535 244.951 235.045 242.444 235.045 239.353C235.045 236.261 232.535 233.755 229.439 233.755C226.343 233.755 223.833 236.261 223.833 239.353C223.833 242.444 226.343 244.951 229.439 244.951Z" fill="#0085FF"/>
<path d="M229.439 275.369C231.551 275.369 233.264 273.659 233.264 271.549C233.264 269.44 231.551 267.73 229.439 267.73C227.326 267.73 225.614 269.44 225.614 271.549C225.614 273.659 227.326 275.369 229.439 275.369Z" fill="#0085FF"/>
<path d="M229.439 309.146C232.426 309.146 234.847 306.728 234.847 303.746C234.847 300.763 232.426 298.346 229.439 298.346C226.452 298.346 224.031 300.763 224.031 303.746C224.031 306.728 226.452 309.146 229.439 309.146Z" fill="#0085FF"/>
<path d="M229.439 338.95C231.102 338.95 232.451 337.603 232.451 335.942C232.451 334.281 231.102 332.935 229.439 332.935C227.776 332.935 226.427 334.281 226.427 335.942C226.427 337.603 227.776 338.95 229.439 338.95Z" fill="#0085FF"/>
<path d="M229.439 374C232.681 374 235.308 371.376 235.308 368.139C235.308 364.902 232.681 362.278 229.439 362.278C226.197 362.278 223.569 364.902 223.569 368.139C223.569 371.376 226.197 374 229.439 374Z" fill="#0085FF"/>
<path d="M261.68 -79.1874C263.574 -79.1874 265.11 -80.7206 265.11 -82.6119C265.11 -84.5032 263.574 -86.0365 261.68 -86.0365C259.786 -86.0365 258.251 -84.5032 258.251 -82.6119C258.251 -80.7206 259.786 -79.1874 261.68 -79.1874Z" fill="#0085FF"/>
<path d="M261.68 -44.1371C265.153 -44.1371 267.968 -46.948 267.968 -50.4154C267.968 -53.8829 265.153 -56.6938 261.68 -56.6938C258.208 -56.6938 255.393 -53.8829 255.393 -50.4154C255.393 -46.948 258.208 -44.1371 261.68 -44.1371Z" fill="#0085FF"/>
<path d="M261.68 -15.4091C263.234 -15.4091 264.494 -16.6671 264.494 -18.219C264.494 -19.7708 263.234 -21.0288 261.68 -21.0288C260.126 -21.0288 258.867 -19.7708 258.867 -18.219C258.867 -16.6671 260.126 -15.4091 261.68 -15.4091Z" fill="#0085FF"/>
<path d="M261.68 16.3923C263.016 16.3923 264.099 15.3111 264.099 13.9775C264.099 12.6439 263.016 11.5628 261.68 11.5628C260.345 11.5628 259.262 12.6439 259.262 13.9775C259.262 15.3111 260.345 16.3923 261.68 16.3923Z" fill="#0085FF"/>
<path d="M261.68 49.4449C263.489 49.4449 264.956 47.9805 264.956 46.174C264.956 44.3675 263.489 42.9031 261.68 42.9031C259.871 42.9031 258.405 44.3675 258.405 46.174C258.405 47.9805 259.871 49.4449 261.68 49.4449Z" fill="#0085FF"/>
<path d="M261.68 84.4512C265.043 84.4512 267.77 81.7288 267.77 78.3705C267.77 75.0122 265.043 72.2897 261.68 72.2897C258.317 72.2897 255.591 75.0122 255.591 78.3705C255.591 81.7288 258.317 84.4512 261.68 84.4512Z" fill="#0085FF"/>
<path d="M261.68 115.374C264.339 115.374 266.495 113.222 266.495 110.567C266.495 107.912 264.339 105.759 261.68 105.759C259.022 105.759 256.866 107.912 256.866 110.567C256.866 113.222 259.022 115.374 261.68 115.374Z" fill="#0085FF"/>
<path d="M261.68 146.561C263.781 146.561 265.483 144.861 265.483 142.763C265.483 140.666 263.781 138.966 261.68 138.966C259.58 138.966 257.877 140.666 257.877 142.763C257.877 144.861 259.58 146.561 261.68 146.561Z" fill="#0085FF"/>
<path d="M261.68 178.582C263.684 178.582 265.308 176.96 265.308 174.96C265.308 172.959 263.684 171.338 261.68 171.338C259.677 171.338 258.053 172.959 258.053 174.96C258.053 176.96 259.677 178.582 261.68 178.582Z" fill="#0085FF"/>
<path d="M261.68 211.196C263.914 211.196 265.725 209.387 265.725 207.156C265.725 204.926 263.914 203.117 261.68 203.117C259.447 203.117 257.636 204.926 257.636 207.156C257.636 209.387 259.447 211.196 261.68 211.196Z" fill="#0085FF"/>
<path d="M261.68 244.841C264.716 244.841 267.176 242.384 267.176 239.353C267.176 236.322 264.716 233.865 261.68 233.865C258.645 233.865 256.185 236.322 256.185 239.353C256.185 242.384 258.645 244.841 261.68 244.841Z" fill="#0085FF"/>
<path d="M261.68 277.696C265.08 277.696 267.836 274.944 267.836 271.549C267.836 268.155 265.08 265.403 261.68 265.403C258.281 265.403 255.525 268.155 255.525 271.549C255.525 274.944 258.281 277.696 261.68 277.696Z" fill="#0085FF"/>
<path d="M261.68 310.156C265.226 310.156 268.099 307.286 268.099 303.746C268.099 300.206 265.226 297.336 261.68 297.336C258.135 297.336 255.261 300.206 255.261 303.746C255.261 307.286 258.135 310.156 261.68 310.156Z" fill="#0085FF"/>
<path d="M261.68 339.279C263.526 339.279 265.022 337.785 265.022 335.942C265.022 334.099 263.526 332.606 261.68 332.606C259.835 332.606 258.339 334.099 258.339 335.942C258.339 337.785 259.835 339.279 261.68 339.279Z" fill="#0085FF"/>
<path d="M261.68 371.102C263.319 371.102 264.648 369.776 264.648 368.139C264.648 366.502 263.319 365.175 261.68 365.175C260.041 365.175 258.713 366.502 258.713 368.139C258.713 369.776 260.041 371.102 261.68 371.102Z" fill="#0085FF"/>
<path d="M293.922 -76.5092C297.297 -76.5092 300.033 -79.2415 300.033 -82.6119C300.033 -85.9824 297.297 -88.7146 293.922 -88.7146C290.547 -88.7146 287.811 -85.9824 287.811 -82.6119C287.811 -79.2415 290.547 -76.5092 293.922 -76.5092Z" fill="#0085FF"/>
<path d="M293.922 -46.969C295.828 -46.969 297.373 -48.512 297.373 -50.4154C297.373 -52.3189 295.828 -53.8619 293.922 -53.8619C292.016 -53.8619 290.471 -52.3189 290.471 -50.4154C290.471 -48.512 292.016 -46.969 293.922 -46.969Z" fill="#0085FF"/>
<path d="M293.922 -16.0018C295.148 -16.0018 296.142 -16.9945 296.142 -18.219C296.142 -19.4435 295.148 -20.4361 293.922 -20.4361C292.696 -20.4361 291.702 -19.4435 291.702 -18.219C291.702 -16.9945 292.696 -16.0018 293.922 -16.0018Z" fill="#0085FF"/>
<path d="M293.922 17.9728C296.132 17.9728 297.923 16.1841 297.923 13.9775C297.923 11.771 296.132 9.98222 293.922 9.98222C291.712 9.98222 289.921 11.771 289.921 13.9775C289.921 16.1841 291.712 17.9728 293.922 17.9728Z" fill="#0085FF"/>
<path d="M293.922 48.7863C295.367 48.7863 296.538 47.6167 296.538 46.174C296.538 44.7313 295.367 43.5617 293.922 43.5617C292.477 43.5617 291.306 44.7313 291.306 46.174C291.306 47.6167 292.477 48.7863 293.922 48.7863Z" fill="#0085FF"/>
<path d="M293.922 84.6707C297.406 84.6707 300.231 81.85 300.231 78.3705C300.231 74.8909 297.406 72.0702 293.922 72.0702C290.438 72.0702 287.613 74.8909 287.613 78.3705C287.613 81.85 290.438 84.6707 293.922 84.6707Z" fill="#0085FF"/>
<path d="M293.922 113.289C295.427 113.289 296.648 112.07 296.648 110.567C296.648 109.064 295.427 107.845 293.922 107.845C292.417 107.845 291.196 109.064 291.196 110.567C291.196 112.07 292.417 113.289 293.922 113.289Z" fill="#0085FF"/>
<path d="M293.922 145.705C295.549 145.705 296.868 144.388 296.868 142.763C296.868 141.139 295.549 139.822 293.922 139.822C292.295 139.822 290.976 141.139 290.976 142.763C290.976 144.388 292.295 145.705 293.922 145.705Z" fill="#0085FF"/>
<path d="M293.922 177.704C295.44 177.704 296.67 176.475 296.67 174.96C296.67 173.444 295.44 172.216 293.922 172.216C292.404 172.216 291.174 173.444 291.174 174.96C291.174 176.475 292.404 177.704 293.922 177.704Z" fill="#0085FF"/>
<path d="M293.922 212.161C296.69 212.161 298.934 209.921 298.934 207.156C298.934 204.392 296.69 202.151 293.922 202.151C291.154 202.151 288.91 204.392 288.91 207.156C288.91 209.921 291.154 212.161 293.922 212.161Z" fill="#0085FF"/>
<path d="M293.922 242.229C295.512 242.229 296.802 240.941 296.802 239.353C296.802 237.765 295.512 236.477 293.922 236.477C292.332 236.477 291.042 237.765 291.042 239.353C291.042 240.941 292.332 242.229 293.922 242.229Z" fill="#0085FF"/>
<path d="M293.922 275.325C296.01 275.325 297.703 273.635 297.703 271.549C297.703 269.464 296.01 267.774 293.922 267.774C291.834 267.774 290.141 269.464 290.141 271.549C290.141 273.635 291.834 275.325 293.922 275.325Z" fill="#0085FF"/>
<path d="M293.922 309.739C297.236 309.739 299.923 307.056 299.923 303.746C299.923 300.436 297.236 297.753 293.922 297.753C290.608 297.753 287.921 300.436 287.921 303.746C287.921 307.056 290.608 309.739 293.922 309.739Z" fill="#0085FF"/>
<path d="M293.922 342.265C297.419 342.265 300.253 339.434 300.253 335.942C300.253 332.451 297.419 329.62 293.922 329.62C290.425 329.62 287.591 332.451 287.591 335.942C287.591 339.434 290.425 342.265 293.922 342.265Z" fill="#0085FF"/>
<path d="M293.922 370.971C295.488 370.971 296.758 369.703 296.758 368.139C296.758 366.575 295.488 365.307 293.922 365.307C292.356 365.307 291.086 366.575 291.086 368.139C291.086 369.703 292.356 370.971 293.922 370.971Z" fill="#0085FF"/>
<path d="M326.164 -78.5508C328.41 -78.5508 330.23 -80.369 330.23 -82.6119C330.23 -84.8548 328.41 -86.6731 326.164 -86.6731C323.918 -86.6731 322.097 -84.8548 322.097 -82.6119C322.097 -80.369 323.918 -78.5508 326.164 -78.5508Z" fill="#0085FF"/>
<path d="M326.164 -47.4958C327.778 -47.4958 329.087 -48.803 329.087 -50.4154C329.087 -52.0279 327.778 -53.3351 326.164 -53.3351C324.549 -53.3351 323.24 -52.0279 323.24 -50.4154C323.24 -48.803 324.549 -47.4958 326.164 -47.4958Z" fill="#0085FF"/>
<path d="M326.164 -11.6553C329.794 -11.6553 332.736 -14.5939 332.736 -18.219C332.736 -21.844 329.794 -24.7827 326.164 -24.7827C322.533 -24.7827 319.591 -21.844 319.591 -18.219C319.591 -14.5939 322.533 -11.6553 326.164 -11.6553Z" fill="#0085FF"/>
<path d="M326.164 18.0826C328.434 18.0826 330.274 16.2447 330.274 13.9775C330.274 11.7104 328.434 9.87247 326.164 9.87247C323.893 9.87247 322.053 11.7104 322.053 13.9775C322.053 16.2447 323.893 18.0826 326.164 18.0826Z" fill="#0085FF"/>
<path d="M326.164 49.8181C328.179 49.8181 329.813 48.1866 329.813 46.174C329.813 44.1614 328.179 42.5299 326.164 42.5299C324.148 42.5299 322.514 44.1614 322.514 46.174C322.514 48.1866 324.148 49.8181 326.164 49.8181Z" fill="#0085FF"/>
<path d="M326.164 80.5876C327.39 80.5876 328.384 79.595 328.384 78.3705C328.384 77.146 327.39 76.1533 326.164 76.1533C324.937 76.1533 323.943 77.146 323.943 78.3705C323.943 79.595 324.937 80.5876 326.164 80.5876Z" fill="#0085FF"/>
<path d="M326.164 116.757C329.587 116.757 332.363 113.986 332.363 110.567C332.363 107.148 329.587 104.376 326.164 104.376C322.74 104.376 319.964 107.148 319.964 110.567C319.964 113.986 322.74 116.757 326.164 116.757Z" fill="#0085FF"/>
<path d="M326.164 145.31C327.572 145.31 328.714 144.17 328.714 142.763C328.714 141.357 327.572 140.217 326.164 140.217C324.755 140.217 323.614 141.357 323.614 142.763C323.614 144.17 324.755 145.31 326.164 145.31Z" fill="#0085FF"/>
<path d="M326.164 178.692C328.228 178.692 329.901 177.021 329.901 174.96C329.901 172.899 328.228 171.228 326.164 171.228C324.1 171.228 322.427 172.899 322.427 174.96C322.427 177.021 324.1 178.692 326.164 178.692Z" fill="#0085FF"/>
<path d="M326.164 213.544C329.697 213.544 332.561 210.684 332.561 207.156C332.561 203.628 329.697 200.768 326.164 200.768C322.631 200.768 319.767 203.628 319.767 207.156C319.767 210.684 322.631 213.544 326.164 213.544Z" fill="#0085FF"/>
<path d="M326.164 242.185C327.73 242.185 328.999 240.917 328.999 239.353C328.999 237.789 327.73 236.521 326.164 236.521C324.597 236.521 323.328 237.789 323.328 239.353C323.328 240.917 324.597 242.185 326.164 242.185Z" fill="#0085FF"/>
<path d="M326.164 276.335C328.81 276.335 330.956 274.192 330.956 271.549C330.956 268.906 328.81 266.764 326.164 266.764C323.517 266.764 321.371 268.906 321.371 271.549C321.371 274.192 323.517 276.335 326.164 276.335Z" fill="#0085FF"/>
<path d="M326.164 308.312C328.689 308.312 330.736 306.268 330.736 303.746C330.736 301.224 328.689 299.18 326.164 299.18C323.638 299.18 321.591 301.224 321.591 303.746C321.591 306.268 323.638 308.312 326.164 308.312Z" fill="#0085FF"/>
<path d="M326.164 342.33C329.697 342.33 332.561 339.47 332.561 335.942C332.561 332.414 329.697 329.554 326.164 329.554C322.631 329.554 319.767 332.414 319.767 335.942C319.767 339.47 322.631 342.33 326.164 342.33Z" fill="#0085FF"/>
<path d="M326.164 373.671C329.223 373.671 331.703 371.194 331.703 368.139C331.703 365.084 329.223 362.607 326.164 362.607C323.104 362.607 320.624 365.084 320.624 368.139C320.624 371.194 323.104 373.671 326.164 373.671Z" fill="#0085FF"/>
<path d="M358.405 -76.2239C361.938 -76.2239 364.802 -79.0839 364.802 -82.6119C364.802 -86.14 361.938 -89 358.405 -89C354.872 -89 352.008 -86.14 352.008 -82.6119C352.008 -79.0839 354.872 -76.2239 358.405 -76.2239Z" fill="#0085FF"/>
<path d="M358.405 -45.8274C360.943 -45.8274 363 -47.8816 363 -50.4154C363 -52.9493 360.943 -55.0034 358.405 -55.0034C355.868 -55.0034 353.811 -52.9493 353.811 -50.4154C353.811 -47.8816 355.868 -45.8274 358.405 -45.8274Z" fill="#0085FF"/>
<path d="M358.405 -11.6333C362.047 -11.6333 365 -14.5818 365 -18.219C365 -21.8561 362.047 -24.8046 358.405 -24.8046C354.763 -24.8046 351.81 -21.8561 351.81 -18.219C351.81 -14.5818 354.763 -11.6333 358.405 -11.6333Z" fill="#0085FF"/>
<path d="M358.405 18.6972C361.015 18.6972 363.131 16.5841 363.131 13.9775C363.131 11.3709 361.015 9.2578 358.405 9.2578C355.795 9.2578 353.679 11.3709 353.679 13.9775C353.679 16.5841 355.795 18.6972 358.405 18.6972Z" fill="#0085FF"/>
<path d="M358.405 52.0133C361.635 52.0133 364.253 49.3989 364.253 46.174C364.253 42.9491 361.635 40.3347 358.405 40.3347C355.176 40.3347 352.558 42.9491 352.558 46.174C352.558 49.3989 355.176 52.0133 358.405 52.0133Z" fill="#0085FF"/>
<path d="M358.405 81.9926C360.408 81.9926 362.032 80.3709 362.032 78.3705C362.032 76.37 360.408 74.7484 358.405 74.7484C356.402 74.7484 354.778 76.37 354.778 78.3705C354.778 80.3709 356.402 81.9926 358.405 81.9926Z" fill="#0085FF"/>
<path d="M358.405 114.672C360.675 114.672 362.516 112.834 362.516 110.567C362.516 108.3 360.675 106.462 358.405 106.462C356.135 106.462 354.294 108.3 354.294 110.567C354.294 112.834 356.135 114.672 358.405 114.672Z" fill="#0085FF"/>
<path d="M358.405 145.244C359.777 145.244 360.889 144.133 360.889 142.763C360.889 141.393 359.777 140.283 358.405 140.283C357.033 140.283 355.921 141.393 355.921 142.763C355.921 144.133 357.033 145.244 358.405 145.244Z" fill="#0085FF"/>
<path d="M358.405 177.901C360.032 177.901 361.351 176.585 361.351 174.96C361.351 173.335 360.032 172.018 358.405 172.018C356.778 172.018 355.459 173.335 355.459 174.96C355.459 176.585 356.778 177.901 358.405 177.901Z" fill="#0085FF"/>
<path d="M358.405 210.01C359.983 210.01 361.263 208.732 361.263 207.156C361.263 205.58 359.983 204.303 358.405 204.303C356.827 204.303 355.547 205.58 355.547 207.156C355.547 208.732 356.827 210.01 358.405 210.01Z" fill="#0085FF"/>
<path d="M358.405 242.887C360.36 242.887 361.944 241.305 361.944 239.353C361.944 237.401 360.36 235.819 358.405 235.819C356.45 235.819 354.866 237.401 354.866 239.353C354.866 241.305 356.45 242.887 358.405 242.887Z" fill="#0085FF"/>
<path d="M358.405 273.964C359.741 273.964 360.823 272.883 360.823 271.549C360.823 270.216 359.741 269.135 358.405 269.135C357.07 269.135 355.987 270.216 355.987 271.549C355.987 272.883 357.07 273.964 358.405 273.964Z" fill="#0085FF"/>
<path d="M358.405 306.775C360.081 306.775 361.439 305.419 361.439 303.746C361.439 302.073 360.081 300.716 358.405 300.716C356.73 300.716 355.372 302.073 355.372 303.746C355.372 305.419 356.73 306.775 358.405 306.775Z" fill="#0085FF"/>
<path d="M358.405 340.838C361.113 340.838 363.307 338.646 363.307 335.942C363.307 333.239 361.113 331.047 358.405 331.047C355.698 331.047 353.503 333.239 353.503 335.942C353.503 338.646 355.698 340.838 358.405 340.838Z" fill="#0085FF"/>
<path d="M358.405 371.19C360.093 371.19 361.461 369.824 361.461 368.139C361.461 366.454 360.093 365.087 358.405 365.087C356.718 365.087 355.35 366.454 355.35 368.139C355.35 369.824 356.718 371.19 358.405 371.19Z" fill="#0085FF"/>
</svg>
